<?xml version="1.0" encoding="utf-8"?>
<svg viewBox="23.064 224.233 362.257 67.32" xmlns="http://www.w3.org/2000/svg">
  <g id="Layer_1" transform="matrix(0.137408, 0, 0, 0.137408, 31.55402, 224.241333)" style="">
    <linearGradient id="SVGID_1_" x1="400.192" x2="400.192" y1="130.237" y2="165.703" gradientUnits="userSpaceOnUse">
      <stop offset="0" stop-color="#1d1d1b"/>
      <stop offset="1" stop-color="#dcdfe4" stop-opacity=".25"/>
    </linearGradient>
    <path fill="url(#SVGID_1_)" d="M395.3 135s3.8-1.2 9.9-2.3v38.1h-9.9V135z" opacity=".8"/>
    <linearGradient id="SVGID_00000088090513436963188230000015830889823297118094_" x1="436.421" x2="436.421" y1="127.962" y2="165.418" gradientUnits="userSpaceOnUse">
      <stop offset="0" stop-color="#1d1d1b"/>
      <stop offset="1" stop-color="#dcdfe4" stop-opacity=".25"/>
    </linearGradient>
    <path fill="url(#SVGID_00000088090513436963188230000015830889823297118094_)" d="M452.7 134v36.8h-9.9v-38.9c-4.2-.7-8.4-1.1-12.8-1.2v40.1h-9.9v-39.9c9.9-.7 21.6-.3 32.6 3.1z" opacity=".8"/>
    <linearGradient id="SVGID_00000090992995767004494610000016496833662917673860_" x1="388.28" x2="388.28" y1="343.748" y2="306.216" gradientUnits="userSpaceOnUse">
      <stop offset="0" stop-color="#1d1d1b"/>
      <stop offset="1" stop-color="#dcdfe4" stop-opacity=".25"/>
    </linearGradient>
    <path fill="url(#SVGID_00000090992995767004494610000016496833662917673860_)" d="M393.2 302.4V340c-1-.3-2-.5-3-.8-.4-.1-.7-.2-1-.3-1.2-.4-2.4-.9-3.6-1.4-.1 0-.2-.1-.3-.1-.7-.3-1.3-.6-2-1v-34.1h9.9z" opacity=".4"/>
    <linearGradient id="SVGID_00000000212849040479905670000010894911573907511996_" x1="337.669" x2="354.002" y1="209.125" y2="225.459" gradientUnits="userSpaceOnUse">
      <stop offset="0" stop-color="#fff"/>
      <stop offset="0.605" stop-color="#e7e8ec" stop-opacity=".395"/>
      <stop offset="1" stop-color="#dcdfe4" stop-opacity="0"/>
    </linearGradient>
    <circle cx="349.6" cy="221.1" r="12.2" fill="url(#SVGID_00000000212849040479905670000010894911573907511996_)"/>
    <linearGradient id="SVGID_00000145030009700482675510000008338450872874879657_" x1="447.548" x2="463.882" y1="259.115" y2="275.448" gradientUnits="userSpaceOnUse">
      <stop offset="0" stop-color="#fff"/>
      <stop offset="0.229" stop-color="#f3f4f6" stop-opacity=".771"/>
      <stop offset="0.67" stop-color="#e2e4e8" stop-opacity=".33"/>
      <stop offset="1" stop-color="#dcdfe4" stop-opacity="0"/>
    </linearGradient>
    <circle cx="459.5" cy="271.1" r="12.2" fill="url(#SVGID_00000145030009700482675510000008338450872874879657_)"/>
    <linearGradient id="SVGID_00000038402977546234591350000002427525563298450325_" x1="412.916" x2="429.25" y1="295.498" y2="311.832" gradientUnits="userSpaceOnUse">
      <stop offset="0" stop-color="#fff"/>
      <stop offset="0.229" stop-color="#f3f4f6" stop-opacity=".771"/>
      <stop offset="0.67" stop-color="#e2e4e8" stop-opacity=".33"/>
      <stop offset="1" stop-color="#dcdfe4" stop-opacity="0"/>
    </linearGradient>
    <circle cx="424.9" cy="307.5" r="12.2" fill="url(#SVGID_00000038402977546234591350000002427525563298450325_)"/>
    <linearGradient id="SVGID_00000124872641491890415630000003153175296637239168_" x1="353.963" x2="370.297" y1="253.472" y2="269.806" gradientUnits="userSpaceOnUse">
      <stop offset="0" stop-color="#fff"/>
      <stop offset="0.229" stop-color="#f3f4f6" stop-opacity=".771"/>
      <stop offset="0.67" stop-color="#e2e4e8" stop-opacity=".33"/>
      <stop offset="1" stop-color="#dcdfe4" stop-opacity="0"/>
    </linearGradient>
    <circle cx="365.9" cy="265.4" r="12.2" fill="url(#SVGID_00000124872641491890415630000003153175296637239168_)"/>
    <linearGradient id="SVGID_00000084492048516312510280000010958016349508207767_" x1="391.563" x2="547.596" y1="129.722" y2="622.297" gradientUnits="userSpaceOnUse">
      <stop offset="0" stop-color="#0eb8db"/>
      <stop offset="1" stop-color="#dcdfe4" stop-opacity=".25"/>
    </linearGradient>
    <path fill="url(#SVGID_00000084492048516312510280000010958016349508207767_)" d="M390.9 339.4c-.2-.1-.5-.1-.7-.2-.4-.1-.7-.2-1-.3 1.3.5 2.7 1 4 1.3v-.2c-.8-.2-1.5-.4-2.3-.6zm2.1-75.5c-.6-2.1-2.5-3.7-4.7-3.7h-11.1c-1.9-4.3-6.2-7.3-11.2-7.3-6.8 0-12.3 5.5-12.3 12.2 0 4.6 2.5 8.6 6.2 10.7 1.8 1 3.9 1.6 6.1 1.6 5 0 9.3-3 11.2-7.3h6.2v32.2h9.9v-37.2c-.1-.3-.1-.8-.3-1.2zm104.7-62.3c-5 0-9.3 3-11.2 7.3h-33.8v-38.2h-9.9v43.1c0 2.7 2.2 4.9 4.9 4.9h38.8c1.9 4.3 6.2 7.3 11.2 7.3 6.8 0 12.2-5.5 12.2-12.3s-5.4-12.1-12.2-12.1zm-61.4 100.8c-1.3-2.8-3.5-5-6.3-6.2V170.8h-9.9v125.4c-2.8 1.2-5 3.5-6.3 6.2-.1.1-.1.3-.2.4-.6 1.4-.9 2.9-.9 4.5 0 6.8 5.5 12.3 12.2 12.3 4.5 0 8.5-2.5 10.6-6.1 1.1-1.8 1.6-3.9 1.6-6.2.3-1.7-.1-3.4-.8-4.9zm-41-131.6v45.4h-34.5c-1.9-4.3-6.2-7.3-11.2-7.3-6.8 0-12.3 5.5-12.3 12.3s5.5 12.2 12.3 12.2c5 0 9.3-3 11.2-7.3h39.4c2.7 0 4.9-2.2 4.9-4.9v-50.3h-9.8zm-4.4 168.6c-.2-.1-.5-.1-.7-.2-.4-.1-.7-.2-1-.3 1.3.5 2.7 1 4 1.3l-2.3-.8zm106.8-137.8c-5 0-9.3 3-11.2 7.3h-33.8v-38.2h-9.9v43.1c0 2.7 2.2 4.9 4.9 4.9h38.8c1.9 4.3 6.2 7.3 11.2 7.3 6.8 0 12.2-5.5 12.2-12.3s-5.4-12.1-12.2-12.1zm-61.4 100.8c-1.3-2.8-3.5-5-6.3-6.2V170.8h-9.9v125.4c-2.8 1.2-5 3.5-6.3 6.2-.1.1-.1.3-.2.4-.6 1.4-.9 2.9-.9 4.5 0 6.8 5.5 12.3 12.2 12.3 4.5 0 8.5-2.5 10.6-6.1 1.1-1.8 1.6-3.9 1.6-6.2.3-1.7-.1-3.4-.8-4.9zm-41-131.6v45.4h-34.5c-1.9-4.3-6.2-7.3-11.2-7.3-6.8 0-12.3 5.5-12.3 12.3s5.5 12.2 12.3 12.2c5 0 9.3-3 11.2-7.3h39.4c2.7 0 4.9-2.2 4.9-4.9v-50.3h-9.8zM387.1 338l3.8 1.4 2.3.8V338h-6.1zm1.2-77.7h-11.1c-1.9-4.3-6.2-7.3-11.2-7.3-6.8 0-12.3 5.5-12.3 12.2 0 4.6 2.5 8.6 6.2 10.7V264H393c-.5-2.2-2.4-3.7-4.7-3.7zm37.6-162.7c-77.5 0-140.3 62.8-140.3 140.3s62.8 140.3 140.3 140.3c77.5 0 140.3-62.8 140.3-140.3S503.3 97.6 425.9 97.6zM387 338c-.5-.2-.9-.3-1.4-.5l1.4.5 3.9 1.4c-.2-.1-.5-.1-.7-.2-.4-.1-.7-.2-1-.3-.8-.3-1.5-.6-2.2-.9zm72.5-54.7c6.8 0 12.2-5.5 12.2-12.3 0-5-3-9.3-7.3-11.2v-6.4h67.7c-7.5 51.9-52.3 91.9-106.3 91.9-11.4 0-22.3-1.8-32.6-5.1v-75c0-.5-.1-.9-.2-1.3-.6-2.1-2.5-3.7-4.7-3.7h-11.1c-1.9-4.3-6.2-7.3-11.2-7.3-6.8 0-12.3 5.5-12.3 12.2 0 4.6 2.5 8.6 6.2 10.7 1.8 1 3.9 1.6 6.1 1.6 5 0 9.3-3 11.2-7.3h6.2v66.4c-8.4-3.7-16.3-8.3-23.4-13.9-25.2-19.7-41.5-50.3-41.5-84.7 0-48.6 32.4-89.7 76.8-102.9v81.1h-34.5c-1.9-4.3-6.2-7.3-11.2-7.3-6.8 0-12.3 5.5-12.3 12.3s5.5 12.2 12.3 12.2c5 0 9.3-3 11.2-7.3h39.4c2.7 0 4.9-2.2 4.9-4.9v-88.5c4.9-1 9.9-1.6 15-1.9v165.4c-2.8 1.2-5 3.5-6.3 6.2-.1.1-.1.3-.2.4-.6 1.4-.9 2.9-.9 4.5 0 6.8 5.5 12.3 12.2 12.3 4.5 0 8.5-2.5 10.6-6.1 1.1-1.8 1.6-3.9 1.6-6.2 0-1.8-.4-3.5-1.1-5-1.3-2.8-3.5-5-6.3-6.2V130.7c4.3.2 8.6.6 12.8 1.2v82c0 2.7 2.2 4.9 4.9 4.9h38.8c1.9 4.3 6.2 7.3 11.2 7.3 6.8 0 12.2-5.5 12.2-12.3s-5.5-12.2-12.2-12.2c-5 0-9.3 3-11.2 7.3h-33.8v-75c46.3 11.9 80.6 54 80.6 104 0 1.9 0 3.8-.1 5.6h-73.6c-2.7 0-4.9 2.2-4.9 4.9v11.3c-4.3 1.9-7.3 6.2-7.3 11.2.1 6.9 5.6 12.4 12.4 12.4zm-71.2-23h-11.1c-1.9-4.3-6.2-7.3-11.2-7.3-6.8 0-12.3 5.5-12.3 12.2 0 4.6 2.5 8.6 6.2 10.7V264H393c-.5-2.2-2.4-3.7-4.7-3.7zm-1.2 77.7 3.8 1.4 2.3.8V338h-6.1zm8.2-167.2v45.4h-34.5c-1.9-4.3-6.2-7.3-11.2-7.3-6.8 0-12.3 5.5-12.3 12.3s5.5 12.2 12.3 12.2c5 0 9.3-3 11.2-7.3h39.4c2.7 0 4.9-2.2 4.9-4.9v-50.3h-9.8zm41 131.6c-1.3-2.8-3.5-5-6.3-6.2V170.8h-9.9v125.4c-2.8 1.2-5 3.5-6.3 6.2-.1.1-.1.3-.2.4-.6 1.4-.9 2.9-.9 4.5 0 6.8 5.5 12.3 12.2 12.3 4.5 0 8.5-2.5 10.6-6.1 1.1-1.8 1.6-3.9 1.6-6.2.3-1.7-.1-3.4-.8-4.9zm61.4-100.8c-5 0-9.3 3-11.2 7.3h-33.8v-38.2h-9.9v43.1c0 2.7 2.2 4.9 4.9 4.9h38.8c1.9 4.3 6.2 7.3 11.2 7.3 6.8 0 12.2-5.5 12.2-12.3s-5.4-12.1-12.2-12.1zm-102.4-30.8v45.4h-34.5c-1.9-4.3-6.2-7.3-11.2-7.3-6.8 0-12.3 5.5-12.3 12.3s5.5 12.2 12.3 12.2c5 0 9.3-3 11.2-7.3h39.4c2.7 0 4.9-2.2 4.9-4.9v-50.3h-9.8zm41 131.6c-1.3-2.8-3.5-5-6.3-6.2V170.8h-9.9v125.4c-2.8 1.2-5 3.5-6.3 6.2-.1.1-.1.3-.2.4-.6 1.4-.9 2.9-.9 4.5 0 6.8 5.5 12.3 12.2 12.3 4.5 0 8.5-2.5 10.6-6.1 1.1-1.8 1.6-3.9 1.6-6.2.3-1.7-.1-3.4-.8-4.9zm61.4-100.8c-5 0-9.3 3-11.2 7.3h-33.8v-38.2h-9.9v43.1c0 2.7 2.2 4.9 4.9 4.9h38.8c1.9 4.3 6.2 7.3 11.2 7.3 6.8 0 12.2-5.5 12.2-12.3s-5.4-12.1-12.2-12.1zM393 263.9c-.6-2.1-2.5-3.7-4.7-3.7h-11.1c-1.9-4.3-6.2-7.3-11.2-7.3-6.8 0-12.3 5.5-12.3 12.2 0 4.6 2.5 8.6 6.2 10.7 1.8 1 3.9 1.6 6.1 1.6 5 0 9.3-3 11.2-7.3h6.2v32.2h9.9v-37.2c-.1-.3-.1-.8-.3-1.2zm-2.1 75.5c-.2-.1-.5-.1-.7-.2-.4-.1-.7-.2-1-.3 1.3.5 2.7 1 4 1.3v-.2c-.8-.2-1.5-.4-2.3-.6z"/>
    <linearGradient id="SVGID_00000176734413200368614710000006967424390594906552_" x1="485.755" x2="502.088" y1="202.031" y2="218.365" gradientUnits="userSpaceOnUse">
      <stop offset="0" stop-color="#fff"/>
      <stop offset="0.229" stop-color="#f3f4f6" stop-opacity=".771"/>
      <stop offset="0.67" stop-color="#e2e4e8" stop-opacity=".33"/>
      <stop offset="1" stop-color="#dcdfe4" stop-opacity="0"/>
    </linearGradient>
    <circle cx="497.7" cy="214" r="12.2" fill="url(#SVGID_00000176734413200368614710000006967424390594906552_)"/>
    <path d="M203 210v-15.6c0-15-2.8-25.3-8.5-30.8s-16.5-8.3-32.4-8.3H63.3c-16.1 0-26.9 2.8-32.5 8.3-5.7 5.5-8.5 15.8-8.5 30.8v87.1c0 15.1 2.8 25.4 8.5 30.9 5.6 5.5 16.5 8.2 32.5 8.2H162c16 0 26.8-2.7 32.4-8.2 5.7-5.5 8.5-15.8 8.5-30.9v-29.8l-38.5 8.8v29H60.8V184.9h103.7v31.3L203 210zM774.9 258.2h21.6c13.2 0 22.7-2.6 28.6-7.7 5.9-5.1 8.8-13.3 8.8-24.4v-38.8c0-11.3-2.9-19.4-8.8-24.5-5.9-5.1-15.4-7.6-28.6-7.6H655.1v165.3h37.8v-62.4h36.5l66.6 62.4h55.2l-76.3-62.3zm-65.2-28.3-16.8 16.8v-62.8h86.5c6.7 0 11.3 1 13.7 2.9 2.5 1.9 3.7 5.3 3.7 10.1v19.8c0 4.9-1.2 8.3-3.7 10.3-2.4 1.9-7 2.9-13.7 2.9h-69.7zM1007 289.5v-41h76.3v-28.1H1007v-36.9h130.6l-28.2-28.2H968.6v165.3h170.8v-31.1H1007zM1305.5 185v-.8h128.7v-29H1267v165.3h38.5v-62.7h69.6v-30.2h-51.2l-19 19v-62.8l.6 1.2z" class="st9" style="fill: rgb(255, 255, 255);"/>
    <defs>
      <path id="SVGID_00000178925423944781698390000011526132253555131016_" d="M390.9 339.4c-.2-.1-.5-.1-.7-.2-.4-.1-.7-.2-1-.3 1.3.5 2.7 1 4 1.3v-.2c-.8-.2-1.5-.4-2.3-.6zm2.1-75.5c-.6-2.1-2.5-3.7-4.7-3.7h-11.1c-1.9-4.3-6.2-7.3-11.2-7.3-6.8 0-12.3 5.5-12.3 12.2 0 4.6 2.5 8.6 6.2 10.7 1.8 1 3.9 1.6 6.1 1.6 5 0 9.3-3 11.2-7.3h6.2v32.2h9.9v-37.2c-.1-.3-.1-.8-.3-1.2zm104.7-62.3c-5 0-9.3 3-11.2 7.3h-33.8v-38.2h-9.9v43.1c0 2.7 2.2 4.9 4.9 4.9h38.8c1.9 4.3 6.2 7.3 11.2 7.3 6.8 0 12.2-5.5 12.2-12.3s-5.4-12.1-12.2-12.1zm-61.4 100.8c-1.3-2.8-3.5-5-6.3-6.2V170.8h-9.9v125.4c-2.8 1.2-5 3.5-6.3 6.2-.1.1-.1.3-.2.4-.6 1.4-.9 2.9-.9 4.5 0 6.8 5.5 12.3 12.2 12.3 4.5 0 8.5-2.5 10.6-6.1 1.1-1.8 1.6-3.9 1.6-6.2.3-1.7-.1-3.4-.8-4.9zm-41-131.6v45.4h-34.5c-1.9-4.3-6.2-7.3-11.2-7.3-6.8 0-12.3 5.5-12.3 12.3s5.5 12.2 12.3 12.2c5 0 9.3-3 11.2-7.3h39.4c2.7 0 4.9-2.2 4.9-4.9v-50.3h-9.8zm-4.4 168.6c-.2-.1-.5-.1-.7-.2-.4-.1-.7-.2-1-.3 1.3.5 2.7 1 4 1.3l-2.3-.8zm106.8-137.8c-5 0-9.3 3-11.2 7.3h-33.8v-38.2h-9.9v43.1c0 2.7 2.2 4.9 4.9 4.9h38.8c1.9 4.3 6.2 7.3 11.2 7.3 6.8 0 12.2-5.5 12.2-12.3s-5.4-12.1-12.2-12.1zm-61.4 100.8c-1.3-2.8-3.5-5-6.3-6.2V170.8h-9.9v125.4c-2.8 1.2-5 3.5-6.3 6.2-.1.1-.1.3-.2.4-.6 1.4-.9 2.9-.9 4.5 0 6.8 5.5 12.3 12.2 12.3 4.5 0 8.5-2.5 10.6-6.1 1.1-1.8 1.6-3.9 1.6-6.2.3-1.7-.1-3.4-.8-4.9zm-41-131.6v45.4h-34.5c-1.9-4.3-6.2-7.3-11.2-7.3-6.8 0-12.3 5.5-12.3 12.3s5.5 12.2 12.3 12.2c5 0 9.3-3 11.2-7.3h39.4c2.7 0 4.9-2.2 4.9-4.9v-50.3h-9.8zM387.1 338l3.8 1.4 2.3.8V338h-6.1zm1.2-77.7h-11.1c-1.9-4.3-6.2-7.3-11.2-7.3-6.8 0-12.3 5.5-12.3 12.2 0 4.6 2.5 8.6 6.2 10.7V264H393c-.5-2.2-2.4-3.7-4.7-3.7zm37.6-162.7c-77.5 0-140.3 62.8-140.3 140.3s62.8 140.3 140.3 140.3c77.5 0 140.3-62.8 140.3-140.3S503.3 97.6 425.9 97.6zM387 338c-.5-.2-.9-.3-1.4-.5l1.4.5 3.9 1.4c-.2-.1-.5-.1-.7-.2-.4-.1-.7-.2-1-.3-.8-.3-1.5-.6-2.2-.9zm72.5-54.7c6.8 0 12.2-5.5 12.2-12.3 0-5-3-9.3-7.3-11.2v-6.4h67.7c-7.5 51.9-52.3 91.9-106.3 91.9-11.4 0-22.3-1.8-32.6-5.1v-75c0-.5-.1-.9-.2-1.3-.6-2.1-2.5-3.7-4.7-3.7h-11.1c-1.9-4.3-6.2-7.3-11.2-7.3-6.8 0-12.3 5.5-12.3 12.2 0 4.6 2.5 8.6 6.2 10.7 1.8 1 3.9 1.6 6.1 1.6 5 0 9.3-3 11.2-7.3h6.2v66.4c-8.4-3.7-16.3-8.3-23.4-13.9-25.2-19.7-41.5-50.3-41.5-84.7 0-48.6 32.4-89.7 76.8-102.9v81.1h-34.5c-1.9-4.3-6.2-7.3-11.2-7.3-6.8 0-12.3 5.5-12.3 12.3s5.5 12.2 12.3 12.2c5 0 9.3-3 11.2-7.3h39.4c2.7 0 4.9-2.2 4.9-4.9v-88.5c4.9-1 9.9-1.6 15-1.9v165.4c-2.8 1.2-5 3.5-6.3 6.2-.1.1-.1.3-.2.4-.6 1.4-.9 2.9-.9 4.5 0 6.8 5.5 12.3 12.2 12.3 4.5 0 8.5-2.5 10.6-6.1 1.1-1.8 1.6-3.9 1.6-6.2 0-1.8-.4-3.5-1.1-5-1.3-2.8-3.5-5-6.3-6.2V130.7c4.3.2 8.6.6 12.8 1.2v82c0 2.7 2.2 4.9 4.9 4.9h38.8c1.9 4.3 6.2 7.3 11.2 7.3 6.8 0 12.2-5.5 12.2-12.3s-5.5-12.2-12.2-12.2c-5 0-9.3 3-11.2 7.3h-33.8v-75c46.3 11.9 80.6 54 80.6 104 0 1.9 0 3.8-.1 5.6h-73.6c-2.7 0-4.9 2.2-4.9 4.9v11.3c-4.3 1.9-7.3 6.2-7.3 11.2.1 6.9 5.6 12.4 12.4 12.4zm-71.2-23h-11.1c-1.9-4.3-6.2-7.3-11.2-7.3-6.8 0-12.3 5.5-12.3 12.2 0 4.6 2.5 8.6 6.2 10.7V264H393c-.5-2.2-2.4-3.7-4.7-3.7zm-1.2 77.7 3.8 1.4 2.3.8V338h-6.1zm8.2-167.2v45.4h-34.5c-1.9-4.3-6.2-7.3-11.2-7.3-6.8 0-12.3 5.5-12.3 12.3s5.5 12.2 12.3 12.2c5 0 9.3-3 11.2-7.3h39.4c2.7 0 4.9-2.2 4.9-4.9v-50.3h-9.8zm41 131.6c-1.3-2.8-3.5-5-6.3-6.2V170.8h-9.9v125.4c-2.8 1.2-5 3.5-6.3 6.2-.1.1-.1.3-.2.4-.6 1.4-.9 2.9-.9 4.5 0 6.8 5.5 12.3 12.2 12.3 4.5 0 8.5-2.5 10.6-6.1 1.1-1.8 1.6-3.9 1.6-6.2.3-1.7-.1-3.4-.8-4.9zm61.4-100.8c-5 0-9.3 3-11.2 7.3h-33.8v-38.2h-9.9v43.1c0 2.7 2.2 4.9 4.9 4.9h38.8c1.9 4.3 6.2 7.3 11.2 7.3 6.8 0 12.2-5.5 12.2-12.3s-5.4-12.1-12.2-12.1zm-102.4-30.8v45.4h-34.5c-1.9-4.3-6.2-7.3-11.2-7.3-6.8 0-12.3 5.5-12.3 12.3s5.5 12.2 12.3 12.2c5 0 9.3-3 11.2-7.3h39.4c2.7 0 4.9-2.2 4.9-4.9v-50.3h-9.8zm41 131.6c-1.3-2.8-3.5-5-6.3-6.2V170.8h-9.9v125.4c-2.8 1.2-5 3.5-6.3 6.2-.1.1-.1.3-.2.4-.6 1.4-.9 2.9-.9 4.5 0 6.8 5.5 12.3 12.2 12.3 4.5 0 8.5-2.5 10.6-6.1 1.1-1.8 1.6-3.9 1.6-6.2.3-1.7-.1-3.4-.8-4.9zm61.4-100.8c-5 0-9.3 3-11.2 7.3h-33.8v-38.2h-9.9v43.1c0 2.7 2.2 4.9 4.9 4.9h38.8c1.9 4.3 6.2 7.3 11.2 7.3 6.8 0 12.2-5.5 12.2-12.3s-5.4-12.1-12.2-12.1zM393 263.9c-.6-2.1-2.5-3.7-4.7-3.7h-11.1c-1.9-4.3-6.2-7.3-11.2-7.3-6.8 0-12.3 5.5-12.3 12.2 0 4.6 2.5 8.6 6.2 10.7 1.8 1 3.9 1.6 6.1 1.6 5 0 9.3-3 11.2-7.3h6.2v32.2h9.9v-37.2c-.1-.3-.1-.8-.3-1.2zm-2.1 75.5c-.2-.1-.5-.1-.7-.2-.4-.1-.7-.2-1-.3 1.3.5 2.7 1 4 1.3v-.2c-.8-.2-1.5-.4-2.3-.6z"/>
    </defs>
    <clipPath id="SVGID_00000152227411604990354550000016398211208924696712_">
      <path d="M390.9 339.4c-.2-.1-.5-.1-.7-.2-.4-.1-.7-.2-1-.3 1.3.5 2.7 1 4 1.3v-.2c-.8-.2-1.5-.4-2.3-.6zm2.1-75.5c-.6-2.1-2.5-3.7-4.7-3.7h-11.1c-1.9-4.3-6.2-7.3-11.2-7.3-6.8 0-12.3 5.5-12.3 12.2 0 4.6 2.5 8.6 6.2 10.7 1.8 1 3.9 1.6 6.1 1.6 5 0 9.3-3 11.2-7.3h6.2v32.2h9.9v-37.2c-.1-.3-.1-.8-.3-1.2zm104.7-62.3c-5 0-9.3 3-11.2 7.3h-33.8v-38.2h-9.9v43.1c0 2.7 2.2 4.9 4.9 4.9h38.8c1.9 4.3 6.2 7.3 11.2 7.3 6.8 0 12.2-5.5 12.2-12.3s-5.4-12.1-12.2-12.1zm-61.4 100.8c-1.3-2.8-3.5-5-6.3-6.2V170.8h-9.9v125.4c-2.8 1.2-5 3.5-6.3 6.2-.1.1-.1.3-.2.4-.6 1.4-.9 2.9-.9 4.5 0 6.8 5.5 12.3 12.2 12.3 4.5 0 8.5-2.5 10.6-6.1 1.1-1.8 1.6-3.9 1.6-6.2.3-1.7-.1-3.4-.8-4.9zm-41-131.6v45.4h-34.5c-1.9-4.3-6.2-7.3-11.2-7.3-6.8 0-12.3 5.5-12.3 12.3s5.5 12.2 12.3 12.2c5 0 9.3-3 11.2-7.3h39.4c2.7 0 4.9-2.2 4.9-4.9v-50.3h-9.8zm-4.4 168.6c-.2-.1-.5-.1-.7-.2-.4-.1-.7-.2-1-.3 1.3.5 2.7 1 4 1.3l-2.3-.8zm106.8-137.8c-5 0-9.3 3-11.2 7.3h-33.8v-38.2h-9.9v43.1c0 2.7 2.2 4.9 4.9 4.9h38.8c1.9 4.3 6.2 7.3 11.2 7.3 6.8 0 12.2-5.5 12.2-12.3s-5.4-12.1-12.2-12.1zm-61.4 100.8c-1.3-2.8-3.5-5-6.3-6.2V170.8h-9.9v125.4c-2.8 1.2-5 3.5-6.3 6.2-.1.1-.1.3-.2.4-.6 1.4-.9 2.9-.9 4.5 0 6.8 5.5 12.3 12.2 12.3 4.5 0 8.5-2.5 10.6-6.1 1.1-1.8 1.6-3.9 1.6-6.2.3-1.7-.1-3.4-.8-4.9zm-41-131.6v45.4h-34.5c-1.9-4.3-6.2-7.3-11.2-7.3-6.8 0-12.3 5.5-12.3 12.3s5.5 12.2 12.3 12.2c5 0 9.3-3 11.2-7.3h39.4c2.7 0 4.9-2.2 4.9-4.9v-50.3h-9.8zM387.1 338l3.8 1.4 2.3.8V338h-6.1zm1.2-77.7h-11.1c-1.9-4.3-6.2-7.3-11.2-7.3-6.8 0-12.3 5.5-12.3 12.2 0 4.6 2.5 8.6 6.2 10.7V264H393c-.5-2.2-2.4-3.7-4.7-3.7zm37.6-162.7c-77.5 0-140.3 62.8-140.3 140.3s62.8 140.3 140.3 140.3c77.5 0 140.3-62.8 140.3-140.3S503.3 97.6 425.9 97.6zM387 338c-.5-.2-.9-.3-1.4-.5l1.4.5 3.9 1.4c-.2-.1-.5-.1-.7-.2-.4-.1-.7-.2-1-.3-.8-.3-1.5-.6-2.2-.9zm72.5-54.7c6.8 0 12.2-5.5 12.2-12.3 0-5-3-9.3-7.3-11.2v-6.4h67.7c-7.5 51.9-52.3 91.9-106.3 91.9-11.4 0-22.3-1.8-32.6-5.1v-75c0-.5-.1-.9-.2-1.3-.6-2.1-2.5-3.7-4.7-3.7h-11.1c-1.9-4.3-6.2-7.3-11.2-7.3-6.8 0-12.3 5.5-12.3 12.2 0 4.6 2.5 8.6 6.2 10.7 1.8 1 3.9 1.6 6.1 1.6 5 0 9.3-3 11.2-7.3h6.2v66.4c-8.4-3.7-16.3-8.3-23.4-13.9-25.2-19.7-41.5-50.3-41.5-84.7 0-48.6 32.4-89.7 76.8-102.9v81.1h-34.5c-1.9-4.3-6.2-7.3-11.2-7.3-6.8 0-12.3 5.5-12.3 12.3s5.5 12.2 12.3 12.2c5 0 9.3-3 11.2-7.3h39.4c2.7 0 4.9-2.2 4.9-4.9v-88.5c4.9-1 9.9-1.6 15-1.9v165.4c-2.8 1.2-5 3.5-6.3 6.2-.1.1-.1.3-.2.4-.6 1.4-.9 2.9-.9 4.5 0 6.8 5.5 12.3 12.2 12.3 4.5 0 8.5-2.5 10.6-6.1 1.1-1.8 1.6-3.9 1.6-6.2 0-1.8-.4-3.5-1.1-5-1.3-2.8-3.5-5-6.3-6.2V130.7c4.3.2 8.6.6 12.8 1.2v82c0 2.7 2.2 4.9 4.9 4.9h38.8c1.9 4.3 6.2 7.3 11.2 7.3 6.8 0 12.2-5.5 12.2-12.3s-5.5-12.2-12.2-12.2c-5 0-9.3 3-11.2 7.3h-33.8v-75c46.3 11.9 80.6 54 80.6 104 0 1.9 0 3.8-.1 5.6h-73.6c-2.7 0-4.9 2.2-4.9 4.9v11.3c-4.3 1.9-7.3 6.2-7.3 11.2.1 6.9 5.6 12.4 12.4 12.4zm-71.2-23h-11.1c-1.9-4.3-6.2-7.3-11.2-7.3-6.8 0-12.3 5.5-12.3 12.2 0 4.6 2.5 8.6 6.2 10.7V264H393c-.5-2.2-2.4-3.7-4.7-3.7zm-1.2 77.7 3.8 1.4 2.3.8V338h-6.1zm8.2-167.2v45.4h-34.5c-1.9-4.3-6.2-7.3-11.2-7.3-6.8 0-12.3 5.5-12.3 12.3s5.5 12.2 12.3 12.2c5 0 9.3-3 11.2-7.3h39.4c2.7 0 4.9-2.2 4.9-4.9v-50.3h-9.8zm41 131.6c-1.3-2.8-3.5-5-6.3-6.2V170.8h-9.9v125.4c-2.8 1.2-5 3.5-6.3 6.2-.1.1-.1.3-.2.4-.6 1.4-.9 2.9-.9 4.5 0 6.8 5.5 12.3 12.2 12.3 4.5 0 8.5-2.5 10.6-6.1 1.1-1.8 1.6-3.9 1.6-6.2.3-1.7-.1-3.4-.8-4.9zm61.4-100.8c-5 0-9.3 3-11.2 7.3h-33.8v-38.2h-9.9v43.1c0 2.7 2.2 4.9 4.9 4.9h38.8c1.9 4.3 6.2 7.3 11.2 7.3 6.8 0 12.2-5.5 12.2-12.3s-5.4-12.1-12.2-12.1zm-102.4-30.8v45.4h-34.5c-1.9-4.3-6.2-7.3-11.2-7.3-6.8 0-12.3 5.5-12.3 12.3s5.5 12.2 12.3 12.2c5 0 9.3-3 11.2-7.3h39.4c2.7 0 4.9-2.2 4.9-4.9v-50.3h-9.8zm41 131.6c-1.3-2.8-3.5-5-6.3-6.2V170.8h-9.9v125.4c-2.8 1.2-5 3.5-6.3 6.2-.1.1-.1.3-.2.4-.6 1.4-.9 2.9-.9 4.5 0 6.8 5.5 12.3 12.2 12.3 4.5 0 8.5-2.5 10.6-6.1 1.1-1.8 1.6-3.9 1.6-6.2.3-1.7-.1-3.4-.8-4.9zm61.4-100.8c-5 0-9.3 3-11.2 7.3h-33.8v-38.2h-9.9v43.1c0 2.7 2.2 4.9 4.9 4.9h38.8c1.9 4.3 6.2 7.3 11.2 7.3 6.8 0 12.2-5.5 12.2-12.3s-5.4-12.1-12.2-12.1zM393 263.9c-.6-2.1-2.5-3.7-4.7-3.7h-11.1c-1.9-4.3-6.2-7.3-11.2-7.3-6.8 0-12.3 5.5-12.3 12.2 0 4.6 2.5 8.6 6.2 10.7 1.8 1 3.9 1.6 6.1 1.6 5 0 9.3-3 11.2-7.3h6.2v32.2h9.9v-37.2c-.1-.3-.1-.8-.3-1.2zm-2.1 75.5c-.2-.1-.5-.1-.7-.2-.4-.1-.7-.2-1-.3 1.3.5 2.7 1 4 1.3v-.2c-.8-.2-1.5-.4-2.3-.6z" overflow="visible"/>
    </clipPath>
    <linearGradient id="SVGID_00000000213664556358550560000000970214536382596006_" x1="497.939" x2="361.795" y1="389.832" y2="118.854" gradientUnits="userSpaceOnUse">
      <stop offset="0" stop-color="#0a0c1b"/>
      <stop offset="1" stop-color="#0a0c1b" stop-opacity="0"/>
    </linearGradient>
    <path fill="url(#SVGID_00000000213664556358550560000000970214536382596006_)" d="M256.9 394H582c26.9 0 48.7-21.8 48.7-48.7V122c0-26.9-21.8-48.7-48.7-48.7H256.9c-26.9 0-48.7 21.8-48.7 48.7v223.3c0 26.9 21.8 48.7 48.7 48.7z" clip-path="url(#SVGID_00000152227411604990354550000016398211208924696712_)" opacity=".6"/>
  </g>
  <g transform="matrix(4.383376, -0.001049, 0.001049, 4.383376, -383.149841, -910.74646)" style="">
    <g transform="matrix(12,0,0,12,148.569,270.731)">
      <path d="M0.714,-0L0.521,-0L0.298,-0.314L0.227,-0.241L0.227,-0L0.079,-0L0.079,-0.72L0.227,-0.72L0.227,-0.423L0.504,-0.72L0.699,-0.72L0.404,-0.423L0.714,-0Z" style="fill:white;fill-rule:nonzero;"/>
    </g>
  </g>
  <g transform="matrix(4.150277, -0.000993, 0.000993, 4.150277, -3679.829346, -1656.901733)" style="">
    <g transform="matrix(12,0,0,12,969.765,465.683)">
      <path d="M0.337,-0.104C0.373,-0.104 0.402,-0.108 0.424,-0.116C0.466,-0.131 0.487,-0.159 0.487,-0.199C0.487,-0.223 0.476,-0.241 0.456,-0.254C0.435,-0.267 0.402,-0.278 0.357,-0.288L0.281,-0.305C0.206,-0.322 0.155,-0.34 0.126,-0.36C0.077,-0.394 0.053,-0.445 0.053,-0.516C0.053,-0.581 0.077,-0.634 0.124,-0.677C0.17,-0.719 0.239,-0.741 0.33,-0.741C0.406,-0.741 0.471,-0.721 0.524,-0.68C0.578,-0.64 0.606,-0.582 0.608,-0.505L0.464,-0.505C0.461,-0.549 0.442,-0.579 0.407,-0.598C0.384,-0.61 0.355,-0.616 0.32,-0.616C0.281,-0.616 0.25,-0.608 0.227,-0.592C0.204,-0.577 0.192,-0.555 0.192,-0.527C0.192,-0.501 0.204,-0.482 0.227,-0.469C0.241,-0.461 0.272,-0.451 0.32,-0.439L0.444,-0.41C0.499,-0.397 0.54,-0.379 0.567,-0.357C0.61,-0.324 0.632,-0.275 0.632,-0.21C0.632,-0.145 0.607,-0.09 0.556,-0.047C0.506,-0.003 0.435,0.019 0.343,0.019C0.25,0.019 0.176,-0.003 0.122,-0.046C0.068,-0.088 0.042,-0.147 0.042,-0.222L0.185,-0.222C0.19,-0.189 0.199,-0.165 0.212,-0.148C0.236,-0.119 0.278,-0.104 0.337,-0.104Z" style="fill:white;fill-rule:nonzero;"/>
    </g>
  </g>
  <g transform="matrix(0.060845, 0, 0, 0.060845, 266.423859, 222.93483)" style="">
    <path d="M 833.84 526.535 L 833.84 573.68" style="fill: none; stroke: white; stroke-width: 22px;"/>
  </g>
  <g transform="matrix(0.08862, -0.000022, 0.000022, 0.08862, 256.721832, 215.01413)" style="">
    <path d="M715.691,451.275L715.819,480.728" style="fill:none;stroke:white;stroke-width:15.11px;"/>
  </g>
  <g transform="matrix(0.08862, -0.000022, 0.000022, 0.08862, 256.721832, 215.01413)" style="">
    <path d="M650.272,481.204L659.816,422.501L738.605,421.961L748.017,481.857" style="fill:none;stroke:white;stroke-width:15.11px;"/>
  </g>
  <g transform="matrix(0.08862, -0.000022, 0.000022, 0.08862, 256.721832, 215.01413)" style="">
    <path d="M682.575,422.345L682.982,357.277L661.186,332.216L676.36,275.625L721.655,275.518L740.177,329.297L715.971,357.587L716.396,417.515" style="fill:none;stroke:white;stroke-width:15.11px;"/>
  </g>
  <g transform="matrix(0.081597, -0.00002, 0.000015, 0.061839, 251.384216, 227.59407)" style="">
    <path d="M1147.36,495.299C1147.36,494.352 1146.78,493.583 1146.06,493.583L693.128,493.583C691.459,493.583 690.105,495.371 690.105,497.573L690.105,699.171C690.105,736.993 713.376,767.7 742.039,767.7L1095.42,767.7C1124.09,767.7 1147.36,736.993 1147.36,699.171L1147.36,495.299Z" style="fill:rgb(235,235,235);fill-opacity:0;stroke:white;stroke-width:18.49px;"/>
  </g>
  <g transform="matrix(0.066204, -0.000017, 0.000015, 0.058619, 269.658508, 237.03717)" style="">
    <path d="M575.157,446.359L1133.27,445.575" style="fill:none;stroke:white;stroke-width:21.41px;"/>
  </g>
  <g transform="matrix(0.08862, -0.000022, 0.000022, 0.08862, 256.721832, 215.01413)" style="">
    <path d="M834.093,485.422L833.325,336.17L808.875,336.427C808.875,336.427 797.654,352.547 790.01,352.33C782.366,352.113 769.599,352.201 769.599,352.201C769.599,352.201 768.831,276.533 813.435,275.769C858.039,275.005 881.676,274.61 881.676,274.61C881.676,274.61 901.454,305.279 931.213,274.018C933.107,272.028 945.436,273.414 945.436,273.414L945.038,337.235C945.038,337.235 931.433,338.402 929.518,336.738C917.812,326.567 900.736,320.653 882.005,337.34C880.869,338.352 833.325,336.17 833.325,336.17" style="fill:none;stroke:white;stroke-width:15.11px;"/>
  </g>
  <g transform="matrix(0.08862, -0.000022, 0.000022, 0.08862, 256.721832, 215.01413)" style="">
    <path d="M875.016,485.117L875.606,338.238" style="fill:none;stroke:white;stroke-width:15.11px;"/>
  </g>
  <g transform="matrix(0.092815, -0.000023, -0.000012, -0.04592, 253.241943, 289.193298)" style="">
    <path d="M986.671,579.401C986.671,563.918 980.157,551.347 972.134,551.347L603.443,551.347C595.42,551.347 588.907,563.918 588.907,579.401L588.907,635.51C588.907,650.993 595.42,663.564 603.443,663.564L972.134,663.564C980.157,663.564 986.671,650.993 986.671,635.51L986.671,579.401Z" style="fill:white;stroke:white;stroke-width:18.97px;"/>
  </g>
  <rect x="246.346" y="233.387" width="1.301" height="49.016" style="fill: rgb(216, 216, 216); stroke-miterlimit: 1; stroke-width: 0px; paint-order: fill; stroke: rgb(255, 255, 255);"/>
</svg>