<svg width="100%" height="100%" viewBox="0 0 218 70" fill="none" xmlns="http://www.w3.org/2000/svg">
    <path opacity="0.8"
        d="M59.7652 20.526C59.7652 20.526 60.3397 20.3436 61.2619 20.1763V25.9692H59.7652V20.526Z"
        fill="#999da4" />
    <path opacity="0.8"
        d="M68.4434 20.3739V25.9692H66.9467V20.0546C66.3117 19.9482 65.6767 19.8874 65.0114 19.8722V25.9692H63.5147V19.9026C65.0114 19.7962 66.7804 19.857 68.4434 20.3739Z"
        fill="#999da4" />
    <path opacity="0.4"
        d="M59.4477 45.9783V51.6952C59.2965 51.6495 59.1453 51.6191 58.9941 51.5735C58.9336 51.5583 58.8883 51.5431 58.8429 51.5279C58.6615 51.4671 58.4801 51.3911 58.2986 51.3151C58.2835 51.3151 58.2684 51.2998 58.2533 51.2998C58.1474 51.2542 58.0567 51.2086 57.9509 51.1478V45.9631H59.4477V45.9783Z"
        fill="url(#paint0_linear_4_6)" />
    <path
        d="M52.8558 35.472C53.8745 35.472 54.7003 34.6416 54.7003 33.6171C54.7003 32.5926 53.8745 31.7621 52.8558 31.7621C51.8371 31.7621 51.0113 32.5926 51.0113 33.6171C51.0113 34.6416 51.8371 35.472 52.8558 35.472Z"
        fill="url(#paint1_linear_4_6)" />
    <path
        d="M69.4715 43.0743C70.4902 43.0743 71.3161 42.2438 71.3161 41.2193C71.3161 40.1949 70.4902 39.3644 69.4715 39.3644C68.4528 39.3644 67.627 40.1949 67.627 41.2193C67.627 42.2438 68.4528 43.0743 69.4715 43.0743Z"
        fill="url(#paint2_linear_4_6)" />
    <path
        d="M64.2404 48.6087C65.2591 48.6087 66.0849 47.7782 66.0849 46.7538C66.0849 45.7293 65.2591 44.8988 64.2404 44.8988C63.2217 44.8988 62.3959 45.7293 62.3959 46.7538C62.3959 47.7782 63.2217 48.6087 64.2404 48.6087Z"
        fill="url(#paint3_linear_4_6)" />
    <path
        d="M55.3202 42.2076C56.3389 42.2076 57.1647 41.3771 57.1647 40.3526C57.1647 39.3282 56.3389 38.4977 55.3202 38.4977C54.3015 38.4977 53.4757 39.3282 53.4757 40.3526C53.4757 41.3771 54.3015 42.2076 55.3202 42.2076Z"
        fill="url(#paint4_linear_4_6)" />
    <path
        d="M59.0999 51.604C59.0697 51.5887 59.0243 51.5887 58.9941 51.5735C58.9336 51.5583 58.8883 51.5431 58.8429 51.5279C59.0395 51.604 59.2511 51.68 59.4477 51.7256V51.6952C59.3267 51.6648 59.2209 51.6344 59.0999 51.604ZM59.4174 40.1246C59.3267 39.8053 59.0395 39.562 58.7068 39.562H57.0286C56.7414 38.9082 56.0913 38.4521 55.3353 38.4521C54.3072 38.4521 53.4757 39.2883 53.4757 40.307C53.4757 41.0064 53.8537 41.6146 54.4131 41.9339C54.6852 42.086 55.0027 42.1772 55.3353 42.1772C56.0913 42.1772 56.7414 41.721 57.0286 41.0673H57.966V45.9631H59.4628V40.307C59.4477 40.2614 59.4477 40.1854 59.4174 40.1246ZM75.247 30.6522C74.491 30.6522 73.8409 31.1083 73.5536 31.7621H68.4434V25.954H66.9467V32.5071C66.9467 32.9177 67.2793 33.2522 67.6875 33.2522H73.5536C73.8409 33.9059 74.491 34.3621 75.247 34.3621C76.2751 34.3621 77.0915 33.5258 77.0915 32.4919C77.0915 31.458 76.2751 30.6522 75.247 30.6522ZM65.9639 45.9783C65.7674 45.5526 65.4348 45.2181 65.0114 45.0356V25.9692H63.5147V45.0356C63.0913 45.2181 62.7587 45.5678 62.5622 45.9783C62.5471 45.9935 62.5471 46.0239 62.5319 46.0391C62.4412 46.252 62.3959 46.48 62.3959 46.7233C62.3959 47.7572 63.2274 48.5935 64.2404 48.5935C64.9207 48.5935 65.5255 48.2134 65.843 47.666C66.0093 47.3923 66.0849 47.073 66.0849 46.7233C66.1303 46.4648 66.0698 46.2064 65.9639 45.9783ZM59.7652 25.9692V32.872H54.5491C54.2619 32.2183 53.6118 31.7621 52.8558 31.7621C51.8277 31.7621 50.9962 32.5984 50.9962 33.6323C50.9962 34.6662 51.8277 35.4872 52.8558 35.4872C53.6118 35.4872 54.2619 35.0311 54.5491 34.3773H60.506C60.9142 34.3773 61.2468 34.0428 61.2468 33.6323V25.9844H59.7652V25.9692ZM59.0999 51.604C59.0697 51.5887 59.0243 51.5887 58.9941 51.5735C58.9336 51.5583 58.8883 51.5431 58.8429 51.5279C59.0395 51.604 59.2511 51.68 59.4477 51.7256L59.0999 51.604ZM75.247 30.6522C74.491 30.6522 73.8409 31.1083 73.5536 31.7621H68.4434V25.954H66.9467V32.5071C66.9467 32.9177 67.2793 33.2522 67.6875 33.2522H73.5536C73.8409 33.9059 74.491 34.3621 75.247 34.3621C76.2751 34.3621 77.0915 33.5258 77.0915 32.4919C77.0915 31.458 76.2751 30.6522 75.247 30.6522ZM65.9639 45.9783C65.7674 45.5526 65.4348 45.2181 65.0114 45.0356V25.9692H63.5147V45.0356C63.0913 45.2181 62.7587 45.5678 62.5622 45.9783C62.5471 45.9935 62.5471 46.0239 62.5319 46.0391C62.4412 46.252 62.3959 46.48 62.3959 46.7233C62.3959 47.7572 63.2274 48.5935 64.2404 48.5935C64.9207 48.5935 65.5255 48.2134 65.843 47.666C66.0093 47.3923 66.0849 47.073 66.0849 46.7233C66.1303 46.4648 66.0698 46.2064 65.9639 45.9783ZM59.7652 25.9692V32.872H54.5491C54.2619 32.2183 53.6118 31.7621 52.8558 31.7621C51.8277 31.7621 50.9962 32.5984 50.9962 33.6323C50.9962 34.6662 51.8277 35.4872 52.8558 35.4872C53.6118 35.4872 54.2619 35.0311 54.5491 34.3773H60.506C60.9142 34.3773 61.2468 34.0428 61.2468 33.6323V25.9844H59.7652V25.9692ZM58.5254 51.3911L59.0999 51.604L59.4477 51.7256V51.3911H58.5254ZM58.7068 39.5772H57.0286C56.7414 38.9234 56.0913 38.4673 55.3353 38.4673C54.3072 38.4673 53.4757 39.3035 53.4757 40.3222C53.4757 41.0216 53.8537 41.6298 54.4131 41.9491V40.1398H59.4174C59.3418 39.8053 59.0546 39.5772 58.7068 39.5772ZM64.3916 14.8395C52.6744 14.8395 43.1797 24.3879 43.1797 36.1714C43.1797 47.9549 52.6744 57.5033 64.3916 57.5033C76.1087 57.5033 85.6034 47.9549 85.6034 36.1714C85.6034 24.3879 76.0936 14.8395 64.3916 14.8395ZM58.5103 51.3911C58.4347 51.3607 58.3742 51.3455 58.2986 51.3151L58.5103 51.3911L59.0999 51.604C59.0697 51.5887 59.0243 51.5887 58.9941 51.5735C58.9336 51.5583 58.8883 51.5431 58.8429 51.5279C58.722 51.4823 58.6161 51.4367 58.5103 51.3911ZM69.4715 43.0742C70.4996 43.0742 71.316 42.238 71.316 41.2041C71.316 40.4439 70.8625 39.7901 70.2124 39.5012V38.5281H80.4479C79.314 46.4192 72.5407 52.501 64.3764 52.501C62.6529 52.501 61.0049 52.2273 59.4477 51.7256V40.3222C59.4477 40.2462 59.4326 40.1854 59.4174 40.1246C59.3267 39.8053 59.0395 39.562 58.7068 39.562H57.0286C56.7414 38.9082 56.0913 38.4521 55.3353 38.4521C54.3072 38.4521 53.4757 39.2883 53.4757 40.307C53.4757 41.0064 53.8537 41.6146 54.4131 41.9339C54.6852 42.086 55.0027 42.1772 55.3353 42.1772C56.0913 42.1772 56.7414 41.721 57.0286 41.0673H57.966V51.163C56.696 50.6005 55.5016 49.9011 54.4282 49.0496C50.6182 46.0543 48.1538 41.4018 48.1538 36.1714C48.1538 28.782 53.0524 22.533 59.7652 20.526V32.8568H54.5491C54.2619 32.203 53.6118 31.7469 52.8558 31.7469C51.8277 31.7469 50.9962 32.5832 50.9962 33.6171C50.9962 34.651 51.8277 35.472 52.8558 35.472C53.6118 35.472 54.2619 35.0159 54.5491 34.3621H60.506C60.9142 34.3621 61.2468 34.0276 61.2468 33.6171V20.1611C61.9877 20.0091 62.7436 19.9178 63.5147 19.8722V45.0204C63.0913 45.2029 62.7587 45.5526 62.5622 45.9631C62.5471 45.9783 62.5471 46.0087 62.5319 46.0239C62.4412 46.2368 62.3959 46.4648 62.3959 46.7081C62.3959 47.742 63.2274 48.5783 64.2404 48.5783C64.9207 48.5783 65.5255 48.1982 65.843 47.6508C66.0093 47.3771 66.0849 47.0578 66.0849 46.7081C66.0849 46.4344 66.0244 46.176 65.9186 45.9479C65.722 45.5222 65.3894 45.1877 64.9661 45.0052V19.8722C65.6162 19.9026 66.2663 19.9634 66.9013 20.0547V32.5223C66.9013 32.9329 67.2339 33.2674 67.6421 33.2674H73.5083C73.7956 33.9212 74.4457 34.3773 75.2016 34.3773C76.2297 34.3773 77.0461 33.541 77.0461 32.5071C77.0461 31.4732 76.2146 30.6522 75.2016 30.6522C74.4457 30.6522 73.7956 31.1083 73.5083 31.7621H68.3981V20.3588C75.3982 22.1681 80.584 28.5692 80.584 36.1714C80.584 36.4603 80.584 36.7492 80.5688 37.0229H69.4413C69.0331 37.0229 68.7005 37.3574 68.7005 37.7679V39.486C68.0504 39.7749 67.5968 40.4287 67.5968 41.1889C67.6119 42.238 68.4434 43.0742 69.4715 43.0742ZM58.7068 39.5772H57.0286C56.7414 38.9234 56.0913 38.4673 55.3353 38.4673C54.3072 38.4673 53.4757 39.3035 53.4757 40.3222C53.4757 41.0216 53.8537 41.6298 54.4131 41.9491V40.1398H59.4174C59.3418 39.8053 59.0546 39.5772 58.7068 39.5772ZM58.5254 51.3911L59.0999 51.604L59.4477 51.7256V51.3911H58.5254ZM59.7652 25.9692V32.872H54.5491C54.2619 32.2183 53.6118 31.7621 52.8558 31.7621C51.8277 31.7621 50.9962 32.5984 50.9962 33.6323C50.9962 34.6662 51.8277 35.4872 52.8558 35.4872C53.6118 35.4872 54.2619 35.0311 54.5491 34.3773H60.506C60.9142 34.3773 61.2468 34.0428 61.2468 33.6323V25.9844H59.7652V25.9692ZM65.9639 45.9783C65.7674 45.5526 65.4348 45.2181 65.0114 45.0356V25.9692H63.5147V45.0356C63.0913 45.2181 62.7587 45.5678 62.5622 45.9783C62.5471 45.9935 62.5471 46.0239 62.5319 46.0391C62.4412 46.252 62.3959 46.48 62.3959 46.7233C62.3959 47.7572 63.2274 48.5935 64.2404 48.5935C64.9207 48.5935 65.5255 48.2134 65.843 47.666C66.0093 47.3923 66.0849 47.073 66.0849 46.7233C66.1303 46.4648 66.0698 46.2064 65.9639 45.9783ZM75.247 30.6522C74.491 30.6522 73.8409 31.1083 73.5536 31.7621H68.4434V25.954H66.9467V32.5071C66.9467 32.9177 67.2793 33.2522 67.6875 33.2522H73.5536C73.8409 33.9059 74.491 34.3621 75.247 34.3621C76.2751 34.3621 77.0915 33.5258 77.0915 32.4919C77.0915 31.458 76.2751 30.6522 75.247 30.6522ZM59.7652 25.9692V32.872H54.5491C54.2619 32.2183 53.6118 31.7621 52.8558 31.7621C51.8277 31.7621 50.9962 32.5984 50.9962 33.6323C50.9962 34.6662 51.8277 35.4872 52.8558 35.4872C53.6118 35.4872 54.2619 35.0311 54.5491 34.3773H60.506C60.9142 34.3773 61.2468 34.0428 61.2468 33.6323V25.9844H59.7652V25.9692ZM65.9639 45.9783C65.7674 45.5526 65.4348 45.2181 65.0114 45.0356V25.9692H63.5147V45.0356C63.0913 45.2181 62.7587 45.5678 62.5622 45.9783C62.5471 45.9935 62.5471 46.0239 62.5319 46.0391C62.4412 46.252 62.3959 46.48 62.3959 46.7233C62.3959 47.7572 63.2274 48.5935 64.2404 48.5935C64.9207 48.5935 65.5255 48.2134 65.843 47.666C66.0093 47.3923 66.0849 47.073 66.0849 46.7233C66.1303 46.4648 66.0698 46.2064 65.9639 45.9783ZM75.247 30.6522C74.491 30.6522 73.8409 31.1083 73.5536 31.7621H68.4434V25.954H66.9467V32.5071C66.9467 32.9177 67.2793 33.2522 67.6875 33.2522H73.5536C73.8409 33.9059 74.491 34.3621 75.247 34.3621C76.2751 34.3621 77.0915 33.5258 77.0915 32.4919C77.0915 31.458 76.2751 30.6522 75.247 30.6522ZM59.4174 40.1246C59.3267 39.8053 59.0395 39.562 58.7068 39.562H57.0286C56.7414 38.9082 56.0913 38.4521 55.3353 38.4521C54.3072 38.4521 53.4757 39.2883 53.4757 40.307C53.4757 41.0064 53.8537 41.6146 54.4131 41.9339C54.6852 42.086 55.0027 42.1772 55.3353 42.1772C56.0913 42.1772 56.7414 41.721 57.0286 41.0673H57.966V45.9631H59.4628V40.307C59.4477 40.2614 59.4477 40.1854 59.4174 40.1246ZM59.0999 51.604C59.0697 51.5887 59.0243 51.5887 58.9941 51.5735C58.9336 51.5583 58.8883 51.5431 58.8429 51.5279C59.0395 51.604 59.2511 51.68 59.4477 51.7256V51.6952C59.3267 51.6648 59.2209 51.6344 59.0999 51.604Z"
        fill="#999da4" />
    <path
        d="M75.247 34.3925C76.2657 34.3925 77.0915 33.562 77.0915 32.5376C77.0915 31.5131 76.2657 30.6826 75.247 30.6826C74.2283 30.6826 73.4025 31.5131 73.4025 32.5376C73.4025 33.562 74.2283 34.3925 75.247 34.3925Z"
        fill="url(#paint5_linear_4_6)" />
    <path
        d="M30.6915 31.9293V29.5574C30.6915 27.2768 30.2681 25.7107 29.4063 24.8745C28.5446 24.0382 26.9117 23.6125 24.5078 23.6125H9.57029C7.13614 23.6125 5.5033 24.0382 4.65663 24.8745C3.79486 25.7107 3.37152 27.2768 3.37152 29.5574V42.8005C3.37152 45.0964 3.79486 46.6625 4.65663 47.4987C5.5033 48.335 7.15126 48.7455 9.57029 48.7455H24.4927C26.9117 48.7455 28.5446 48.335 29.3912 47.4987C30.253 46.6625 30.6763 45.0964 30.6763 42.8005V38.2696L24.8555 39.6076V44.0169H9.19232V28.113H24.8707V32.872L30.6915 31.9293ZM117.157 39.2579H120.422C122.418 39.2579 123.854 38.8626 124.746 38.0872C125.638 37.3117 126.077 36.065 126.077 34.3773V28.4779C126.077 26.7598 125.638 25.5283 124.746 24.7528C123.854 23.9774 122.418 23.5973 120.422 23.5973H99.0442V48.7303H104.759V39.2427H110.278L120.347 48.7303H128.692L117.157 39.2579ZM107.299 34.955L104.759 37.5094V27.961H117.837C118.85 27.961 119.545 28.113 119.908 28.4019C120.286 28.6908 120.468 29.2077 120.468 29.9376V32.948C120.468 33.6931 120.286 34.21 119.908 34.5141C119.545 34.803 118.85 34.955 117.837 34.955H107.299ZM152.248 44.0169V37.7831H163.783V33.5106H152.248V27.9002H171.993L167.73 23.6125H146.442V48.7455H172.265V44.0169H152.248ZM197.378 28.1282V28.0066H216.836V23.5973H191.557V48.7303H197.378V39.1971H207.901V34.6053H200.16L197.287 37.4942V27.9458L197.378 28.1282Z"
        fill="#999da4" />
    <mask id="mask0_4_6" style="mask-type:luminance" maskUnits="userSpaceOnUse" x="43" y="14"
        width="43" height="44">
        <path
            d="M59.0999 51.604C59.0697 51.5887 59.0243 51.5887 58.9941 51.5735C58.9336 51.5583 58.8883 51.5431 58.8429 51.5279C59.0395 51.604 59.2511 51.68 59.4477 51.7256V51.6952C59.3267 51.6648 59.2209 51.6344 59.0999 51.604ZM59.4174 40.1246C59.3267 39.8053 59.0395 39.562 58.7068 39.562H57.0286C56.7414 38.9082 56.0913 38.4521 55.3353 38.4521C54.3072 38.4521 53.4757 39.2883 53.4757 40.307C53.4757 41.0064 53.8537 41.6146 54.4131 41.9339C54.6852 42.086 55.0027 42.1772 55.3353 42.1772C56.0913 42.1772 56.7414 41.721 57.0286 41.0673H57.966V45.9631H59.4628V40.307C59.4477 40.2614 59.4477 40.1854 59.4174 40.1246ZM75.247 30.6522C74.491 30.6522 73.8409 31.1083 73.5536 31.7621H68.4434V25.954H66.9467V32.5071C66.9467 32.9177 67.2793 33.2522 67.6875 33.2522H73.5536C73.8409 33.9059 74.491 34.3621 75.247 34.3621C76.2751 34.3621 77.0915 33.5258 77.0915 32.4919C77.0915 31.458 76.2751 30.6522 75.247 30.6522ZM65.9639 45.9783C65.7674 45.5526 65.4348 45.2181 65.0114 45.0356V25.9692H63.5147V45.0356C63.0913 45.2181 62.7587 45.5678 62.5622 45.9783C62.5471 45.9935 62.5471 46.0239 62.5319 46.0391C62.4412 46.252 62.3959 46.48 62.3959 46.7233C62.3959 47.7572 63.2274 48.5935 64.2404 48.5935C64.9207 48.5935 65.5255 48.2134 65.843 47.666C66.0093 47.3923 66.0849 47.073 66.0849 46.7233C66.1303 46.4648 66.0698 46.2064 65.9639 45.9783ZM59.7652 25.9692V32.872H54.5491C54.2619 32.2183 53.6118 31.7621 52.8558 31.7621C51.8277 31.7621 50.9962 32.5984 50.9962 33.6323C50.9962 34.6662 51.8277 35.4872 52.8558 35.4872C53.6118 35.4872 54.2619 35.0311 54.5491 34.3773H60.506C60.9142 34.3773 61.2468 34.0428 61.2468 33.6323V25.9844H59.7652V25.9692ZM59.0999 51.604C59.0697 51.5887 59.0243 51.5887 58.9941 51.5735C58.9336 51.5583 58.8883 51.5431 58.8429 51.5279C59.0395 51.604 59.2511 51.68 59.4477 51.7256L59.0999 51.604ZM75.247 30.6522C74.491 30.6522 73.8409 31.1083 73.5536 31.7621H68.4434V25.954H66.9467V32.5071C66.9467 32.9177 67.2793 33.2522 67.6875 33.2522H73.5536C73.8409 33.9059 74.491 34.3621 75.247 34.3621C76.2751 34.3621 77.0915 33.5258 77.0915 32.4919C77.0915 31.458 76.2751 30.6522 75.247 30.6522ZM65.9639 45.9783C65.7674 45.5526 65.4348 45.2181 65.0114 45.0356V25.9692H63.5147V45.0356C63.0913 45.2181 62.7587 45.5678 62.5622 45.9783C62.5471 45.9935 62.5471 46.0239 62.5319 46.0391C62.4412 46.252 62.3959 46.48 62.3959 46.7233C62.3959 47.7572 63.2274 48.5935 64.2404 48.5935C64.9207 48.5935 65.5255 48.2134 65.843 47.666C66.0093 47.3923 66.0849 47.073 66.0849 46.7233C66.1303 46.4648 66.0698 46.2064 65.9639 45.9783ZM59.7652 25.9692V32.872H54.5491C54.2619 32.2183 53.6118 31.7621 52.8558 31.7621C51.8277 31.7621 50.9962 32.5984 50.9962 33.6323C50.9962 34.6662 51.8277 35.4872 52.8558 35.4872C53.6118 35.4872 54.2619 35.0311 54.5491 34.3773H60.506C60.9142 34.3773 61.2468 34.0428 61.2468 33.6323V25.9844H59.7652V25.9692ZM58.5254 51.3911L59.0999 51.604L59.4477 51.7256V51.3911H58.5254ZM58.7068 39.5772H57.0286C56.7414 38.9234 56.0913 38.4673 55.3353 38.4673C54.3072 38.4673 53.4757 39.3035 53.4757 40.3222C53.4757 41.0216 53.8537 41.6298 54.4131 41.9491V40.1398H59.4174C59.3418 39.8053 59.0546 39.5772 58.7068 39.5772ZM64.3916 14.8395C52.6744 14.8395 43.1797 24.3879 43.1797 36.1714C43.1797 47.9549 52.6744 57.5033 64.3916 57.5033C76.1087 57.5033 85.6034 47.9549 85.6034 36.1714C85.6034 24.3879 76.0936 14.8395 64.3916 14.8395ZM58.5103 51.3911C58.4347 51.3607 58.3742 51.3455 58.2986 51.3151L58.5103 51.3911L59.0999 51.604C59.0697 51.5887 59.0243 51.5887 58.9941 51.5735C58.9336 51.5583 58.8883 51.5431 58.8429 51.5279C58.722 51.4823 58.6161 51.4367 58.5103 51.3911ZM69.4715 43.0742C70.4996 43.0742 71.316 42.238 71.316 41.2041C71.316 40.4439 70.8625 39.7901 70.2124 39.5012V38.5281H80.4479C79.314 46.4192 72.5407 52.501 64.3764 52.501C62.6529 52.501 61.0049 52.2273 59.4477 51.7256V40.3222C59.4477 40.2462 59.4326 40.1854 59.4174 40.1246C59.3267 39.8053 59.0395 39.562 58.7068 39.562H57.0286C56.7414 38.9082 56.0913 38.4521 55.3353 38.4521C54.3072 38.4521 53.4757 39.2883 53.4757 40.307C53.4757 41.0064 53.8537 41.6146 54.4131 41.9339C54.6852 42.086 55.0027 42.1772 55.3353 42.1772C56.0913 42.1772 56.7414 41.721 57.0286 41.0673H57.966V51.163C56.696 50.6005 55.5016 49.9011 54.4282 49.0496C50.6182 46.0543 48.1538 41.4018 48.1538 36.1714C48.1538 28.782 53.0524 22.533 59.7652 20.526V32.8568H54.5491C54.2619 32.203 53.6118 31.7469 52.8558 31.7469C51.8277 31.7469 50.9962 32.5832 50.9962 33.6171C50.9962 34.651 51.8277 35.472 52.8558 35.472C53.6118 35.472 54.2619 35.0159 54.5491 34.3621H60.506C60.9142 34.3621 61.2468 34.0276 61.2468 33.6171V20.1611C61.9877 20.0091 62.7436 19.9178 63.5147 19.8722V45.0204C63.0913 45.2029 62.7587 45.5526 62.5622 45.9631C62.5471 45.9783 62.5471 46.0087 62.5319 46.0239C62.4412 46.2368 62.3959 46.4648 62.3959 46.7081C62.3959 47.742 63.2274 48.5783 64.2404 48.5783C64.9207 48.5783 65.5255 48.1982 65.843 47.6508C66.0093 47.3771 66.0849 47.0578 66.0849 46.7081C66.0849 46.4344 66.0244 46.176 65.9186 45.9479C65.722 45.5222 65.3894 45.1877 64.9661 45.0052V19.8722C65.6162 19.9026 66.2663 19.9634 66.9013 20.0547V32.5223C66.9013 32.9329 67.2339 33.2674 67.6421 33.2674H73.5083C73.7956 33.9212 74.4457 34.3773 75.2016 34.3773C76.2297 34.3773 77.0461 33.541 77.0461 32.5071C77.0461 31.4732 76.2146 30.6522 75.2016 30.6522C74.4457 30.6522 73.7956 31.1083 73.5083 31.7621H68.3981V20.3588C75.3982 22.1681 80.584 28.5692 80.584 36.1714C80.584 36.4603 80.584 36.7492 80.5688 37.0229H69.4413C69.0331 37.0229 68.7005 37.3574 68.7005 37.7679V39.486C68.0504 39.7749 67.5968 40.4287 67.5968 41.1889C67.6119 42.238 68.4434 43.0742 69.4715 43.0742ZM58.7068 39.5772H57.0286C56.7414 38.9234 56.0913 38.4673 55.3353 38.4673C54.3072 38.4673 53.4757 39.3035 53.4757 40.3222C53.4757 41.0216 53.8537 41.6298 54.4131 41.9491V40.1398H59.4174C59.3418 39.8053 59.0546 39.5772 58.7068 39.5772ZM58.5254 51.3911L59.0999 51.604L59.4477 51.7256V51.3911H58.5254ZM59.7652 25.9692V32.872H54.5491C54.2619 32.2183 53.6118 31.7621 52.8558 31.7621C51.8277 31.7621 50.9962 32.5984 50.9962 33.6323C50.9962 34.6662 51.8277 35.4872 52.8558 35.4872C53.6118 35.4872 54.2619 35.0311 54.5491 34.3773H60.506C60.9142 34.3773 61.2468 34.0428 61.2468 33.6323V25.9844H59.7652V25.9692ZM65.9639 45.9783C65.7674 45.5526 65.4348 45.2181 65.0114 45.0356V25.9692H63.5147V45.0356C63.0913 45.2181 62.7587 45.5678 62.5622 45.9783C62.5471 45.9935 62.5471 46.0239 62.5319 46.0391C62.4412 46.252 62.3959 46.48 62.3959 46.7233C62.3959 47.7572 63.2274 48.5935 64.2404 48.5935C64.9207 48.5935 65.5255 48.2134 65.843 47.666C66.0093 47.3923 66.0849 47.073 66.0849 46.7233C66.1303 46.4648 66.0698 46.2064 65.9639 45.9783ZM75.247 30.6522C74.491 30.6522 73.8409 31.1083 73.5536 31.7621H68.4434V25.954H66.9467V32.5071C66.9467 32.9177 67.2793 33.2522 67.6875 33.2522H73.5536C73.8409 33.9059 74.491 34.3621 75.247 34.3621C76.2751 34.3621 77.0915 33.5258 77.0915 32.4919C77.0915 31.458 76.2751 30.6522 75.247 30.6522ZM59.7652 25.9692V32.872H54.5491C54.2619 32.2183 53.6118 31.7621 52.8558 31.7621C51.8277 31.7621 50.9962 32.5984 50.9962 33.6323C50.9962 34.6662 51.8277 35.4872 52.8558 35.4872C53.6118 35.4872 54.2619 35.0311 54.5491 34.3773H60.506C60.9142 34.3773 61.2468 34.0428 61.2468 33.6323V25.9844H59.7652V25.9692ZM65.9639 45.9783C65.7674 45.5526 65.4348 45.2181 65.0114 45.0356V25.9692H63.5147V45.0356C63.0913 45.2181 62.7587 45.5678 62.5622 45.9783C62.5471 45.9935 62.5471 46.0239 62.5319 46.0391C62.4412 46.252 62.3959 46.48 62.3959 46.7233C62.3959 47.7572 63.2274 48.5935 64.2404 48.5935C64.9207 48.5935 65.5255 48.2134 65.843 47.666C66.0093 47.3923 66.0849 47.073 66.0849 46.7233C66.1303 46.4648 66.0698 46.2064 65.9639 45.9783ZM75.247 30.6522C74.491 30.6522 73.8409 31.1083 73.5536 31.7621H68.4434V25.954H66.9467V32.5071C66.9467 32.9177 67.2793 33.2522 67.6875 33.2522H73.5536C73.8409 33.9059 74.491 34.3621 75.247 34.3621C76.2751 34.3621 77.0915 33.5258 77.0915 32.4919C77.0915 31.458 76.2751 30.6522 75.247 30.6522ZM59.4174 40.1246C59.3267 39.8053 59.0395 39.562 58.7068 39.562H57.0286C56.7414 38.9082 56.0913 38.4521 55.3353 38.4521C54.3072 38.4521 53.4757 39.2883 53.4757 40.307C53.4757 41.0064 53.8537 41.6146 54.4131 41.9339C54.6852 42.086 55.0027 42.1772 55.3353 42.1772C56.0913 42.1772 56.7414 41.721 57.0286 41.0673H57.966V45.9631H59.4628V40.307C59.4477 40.2614 59.4477 40.1854 59.4174 40.1246ZM59.0999 51.604C59.0697 51.5887 59.0243 51.5887 58.9941 51.5735C58.9336 51.5583 58.8883 51.5431 58.8429 51.5279C59.0395 51.604 59.2511 51.68 59.4477 51.7256V51.6952C59.3267 51.6648 59.2209 51.6344 59.0999 51.604Z"
            fill="white" />
    </mask>
    <g mask="url(#mask0_4_6)">
        <path opacity="0.6"
            d="M38.8406 59.9056H87.9922C92.0592 59.9056 95.3552 56.591 95.3552 52.501V18.5494C95.3552 14.4594 92.0592 11.1448 87.9922 11.1448H38.8406C34.7736 11.1448 31.4776 14.4594 31.4776 18.5494V52.501C31.4776 56.591 34.7736 59.9056 38.8406 59.9056Z"
            fill="#999da4" />
    </g>
    <defs>
        <linearGradient id="paint0_linear_4_6" x1="58.7038" y1="52.265" x2="58.7038" y2="46.5585"
            gradientUnits="userSpaceOnUse">
            <stop stop-color="#1D1D1B" />
            <stop offset="1" stop-color="#DCDFE4" stop-opacity="0.25" />
        </linearGradient>
        <linearGradient id="paint1_linear_4_6" x1="51.052" y1="31.7964" x2="53.5353" y2="34.2658"
            gradientUnits="userSpaceOnUse">
            <stop stop-color="white" />
            <stop offset="0.605" stop-color="#E7E8EC" stop-opacity="0.395" />
            <stop offset="1" stop-color="#DCDFE4" stop-opacity="0" />
        </linearGradient>
        <linearGradient id="paint2_linear_4_6" x1="67.6645" y1="39.3971" x2="70.148" y2="41.8664"
            gradientUnits="userSpaceOnUse">
            <stop stop-color="white" />
            <stop offset="0.229" stop-color="#F3F4F6" stop-opacity="0.771" />
            <stop offset="0.67" stop-color="#E2E4E8" stop-opacity="0.33" />
            <stop offset="1" stop-color="#DCDFE4" stop-opacity="0" />
        </linearGradient>
        <linearGradient id="paint3_linear_4_6" x1="62.4285" y1="44.9289" x2="64.912" y2="47.3984"
            gradientUnits="userSpaceOnUse">
            <stop stop-color="white" />
            <stop offset="0.229" stop-color="#F3F4F6" stop-opacity="0.771" />
            <stop offset="0.67" stop-color="#E2E4E8" stop-opacity="0.33" />
            <stop offset="1" stop-color="#DCDFE4" stop-opacity="0" />
        </linearGradient>
        <linearGradient id="paint4_linear_4_6" x1="53.5155" y1="38.539" x2="55.9989" y2="41.0085"
            gradientUnits="userSpaceOnUse">
            <stop stop-color="white" />
            <stop offset="0.229" stop-color="#F3F4F6" stop-opacity="0.771" />
            <stop offset="0.67" stop-color="#E2E4E8" stop-opacity="0.33" />
            <stop offset="1" stop-color="#DCDFE4" stop-opacity="0" />
        </linearGradient>
        <linearGradient id="paint5_linear_4_6" x1="73.441" y1="30.7177" x2="75.9243" y2="33.1872"
            gradientUnits="userSpaceOnUse">
            <stop stop-color="white" />
            <stop offset="0.229" stop-color="#F3F4F6" stop-opacity="0.771" />
            <stop offset="0.67" stop-color="#E2E4E8" stop-opacity="0.33" />
            <stop offset="1" stop-color="#DCDFE4" stop-opacity="0" />
        </linearGradient>
    </defs>
</svg>