<svg width="1150" height="171" viewBox="0 0 1150 171" fill="none" xmlns="http://www.w3.org/2000/svg">
<path d="M789.082 150.709L789 21.1507C796.147 21.1492 807.526 21.1507 814.673 21.1507C814.645 41.7026 814.671 62.2548 814.671 82.8067H815.074L854.827 21.1478C864.86 21.1673 874.892 21.1552 884.925 21.1478C880.184 26.9587 875.626 32.9355 871.169 39C861.533 52.1127 852.374 65.6353 842.88 78.7769C858.184 102.744 873.194 126.926 888.781 150.709C881.742 150.709 867.862 150.709 860.823 150.709C848.588 133.758 838.441 114.848 827.365 97.1124L814.671 112.023V150.709C806.141 150.709 797.612 150.709 789.082 150.709Z" fill="white"/>
<path d="M1060.4 117.664V113.635C1060.4 110.814 1060.4 109.403 1060.4 109.403H1085.99C1085.99 109.403 1085.99 110.814 1085.99 113.635V115.247C1085.99 120.351 1086.99 123.843 1089.01 125.724C1091.02 127.605 1094.72 128.545 1100.09 128.545H1109.56C1114.8 128.545 1118.43 127.537 1120.44 125.523C1122.59 123.508 1123.67 119.747 1123.67 114.239V111.821C1123.67 107.925 1122.05 104.971 1118.83 102.956C1115.74 100.807 1111.85 99.5303 1107.14 99.1274C1102.44 98.7244 1097.34 97.9859 1091.83 96.911C1086.46 95.702 1081.42 94.2241 1076.72 92.4782C1072.02 90.5973 1068.05 87.038 1064.83 81.7993C1061.74 76.4262 1060.2 69.5755 1060.2 61.2472V54.1951C1060.2 43.7176 1063.15 35.5909 1069.06 29.8148C1074.97 24.0387 1083.17 21.1507 1093.64 21.1507H1113.79C1124.4 21.1507 1132.67 24.0387 1138.58 29.8148C1144.49 35.5909 1147.44 43.7176 1147.44 54.1951V58.0235C1147.44 60.8442 1147.44 62.2548 1147.44 62.2548H1121.85C1121.85 62.2548 1121.85 60.8442 1121.85 58.0235V56.8144C1121.85 51.5758 1120.84 48.0161 1118.83 46.1355C1116.81 44.255 1113.12 43.3146 1107.75 43.3146H1099.89C1094.38 43.3146 1090.62 44.3892 1088.61 46.5384C1086.73 48.5533 1085.79 52.5831 1085.79 58.6278V62.4562C1085.79 68.7695 1091.29 72.3964 1102.31 73.3367C1113.72 74.277 1123.87 76.5606 1132.73 80.1873C1137.43 82.2023 1141.33 85.8291 1144.42 91.0677C1147.64 96.1725 1149.25 102.754 1149.25 110.814V117.664C1149.25 128.142 1146.3 136.269 1140.39 142.045C1134.48 147.82 1126.28 150.709 1115.81 150.709H1093.84C1083.37 150.709 1075.17 147.82 1069.26 142.045C1063.35 136.269 1060.4 128.142 1060.4 117.664Z" fill="white"/>
<path fill-rule="evenodd" clip-rule="evenodd" d="M988.384 52.8884L1007.88 52.8903C1007.88 52.8903 1006.71 44.1598 1009.52 42.2559C1012.34 40.3504 1016.71 38.046 1026.84 42.2559C1036.97 46.4677 1043.93 52.8884 1043.93 52.8884L1047.4 49.8986C1047.4 49.8986 1033.41 30.9252 1021.61 25.3114C1009.81 19.6993 988.318 21.4946 988.318 21.4946C988.318 21.4946 984.406 28.8432 978.518 28.8432C972.634 28.8432 972.07 21.4946 972.07 21.4946L961.826 22.7111V45.4865L972.068 46.6827C972.068 46.6827 973.418 39.9222 978.519 40.1684C989.497 40.7014 988.384 52.8884 988.384 52.8884Z" fill="url(#paint0_linear_4_99)"/>
<path fill-rule="evenodd" clip-rule="evenodd" d="M1007.88 59.8806L1009.53 151H985.354L988.382 59.8806H1007.88Z" fill="url(#paint1_linear_4_99)"/>
<path d="M942.193 95.2933C942.786 94.7862 943.134 94.0342 943.134 93.2523V88.4185C943.134 87.1445 942.106 86.1168 940.832 86.1168H908.846C907.572 86.1168 906.545 87.1445 906.545 88.4185L906.559 93.2668C906.559 94.0487 906.906 94.8006 907.499 95.3077C909.28 96.8271 910.409 99.056 910.409 101.574C910.409 104.093 909.266 106.337 907.499 107.842C906.906 108.349 906.559 109.101 906.559 109.882V131.883C906.559 141.956 914.447 150.597 924.506 150.785C934.768 150.973 943.149 142.709 943.149 132.49V109.882C943.149 109.101 942.801 108.349 942.208 107.842C940.427 106.322 939.298 104.093 939.298 101.574C939.284 99.0416 940.427 96.7982 942.193 95.2933ZM921.713 134.184C921.713 135.862 920.352 137.223 918.673 137.223C916.994 137.223 915.634 135.862 915.634 134.184V113.37C915.634 111.692 916.994 110.331 918.673 110.331C920.352 110.331 921.713 111.692 921.713 113.37V134.184ZM934.087 134.198C934.087 135.877 932.727 137.238 931.049 137.238C929.369 137.238 928.009 135.877 928.009 134.198V113.385C928.009 111.707 929.369 110.345 931.049 110.345C932.727 110.345 934.087 111.707 934.087 113.385V134.198Z" fill="url(#paint2_linear_4_99)"/>
<path d="M927.502 21H921.973C921.076 21 920.309 21.5645 920.019 22.404L912.421 45.2288C912.175 45.967 912.377 46.7775 912.927 47.3275L919.382 53.7827V78.2142C919.382 78.8221 919.875 79.3142 920.482 79.3142H928.993C929.6 79.3142 930.093 78.8221 930.093 78.2142V53.7827L936.548 47.3275C937.098 46.7775 937.3 45.967 937.055 45.2288L929.441 22.3895C929.167 21.5645 928.399 21 927.502 21Z" fill="url(#paint3_linear_4_99)"/>
<path opacity="0.8" d="M173.061 38.3754C173.061 38.3754 174.824 37.8179 177.655 37.3069V55.0075H173.061V38.3754Z" fill="url(#paint4_linear_4_99)"/>
<path opacity="0.8" d="M199.693 37.9108V55.0075H195.1V36.9352C193.151 36.61 191.203 36.4242 189.161 36.3777V55.0075H184.568V36.4706C189.161 36.1454 194.59 36.3313 199.693 37.9108Z" fill="url(#paint5_linear_4_99)"/>
<path opacity="0.4" d="M172.087 116.147V133.615C171.623 133.476 171.159 133.383 170.695 133.243C170.509 133.197 170.37 133.15 170.231 133.104C169.674 132.918 169.117 132.686 168.561 132.454C168.514 132.454 168.468 132.407 168.422 132.407C168.097 132.268 167.818 132.128 167.494 131.942V116.1H172.087V116.147Z" fill="url(#paint6_linear_4_99)"/>
<path d="M151.858 84.044C154.984 84.044 157.518 81.5064 157.518 78.3761C157.518 75.2457 154.984 72.7081 151.858 72.7081C148.732 72.7081 146.197 75.2457 146.197 78.3761C146.197 81.5064 148.732 84.044 151.858 84.044Z" fill="url(#paint7_linear_4_99)"/>
<path d="M202.848 107.273C205.974 107.273 208.509 104.736 208.509 101.605C208.509 98.4749 205.974 95.9373 202.848 95.9373C199.722 95.9373 197.188 98.4749 197.188 101.605C197.188 104.736 199.722 107.273 202.848 107.273Z" fill="url(#paint8_linear_4_99)"/>
<path d="M186.795 124.184C189.921 124.184 192.455 121.646 192.455 118.516C192.455 115.386 189.921 112.848 186.795 112.848C183.669 112.848 181.134 115.386 181.134 118.516C181.134 121.646 183.669 124.184 186.795 124.184Z" fill="url(#paint9_linear_4_99)"/>
<path d="M159.421 104.625C162.547 104.625 165.081 102.087 165.081 98.9571C165.081 95.8268 162.547 93.2892 159.421 93.2892C156.294 93.2892 153.76 95.8268 153.76 98.9571C153.76 102.087 156.294 104.625 159.421 104.625Z" fill="url(#paint10_linear_4_99)"/>
<path d="M171.02 133.336C170.927 133.29 170.788 133.29 170.695 133.243C170.509 133.197 170.37 133.15 170.231 133.104C170.834 133.336 171.484 133.569 172.087 133.708V133.615C171.716 133.522 171.391 133.429 171.02 133.336ZM171.994 98.2602C171.716 97.2846 170.834 96.5413 169.813 96.5413H164.663C163.782 94.5435 161.787 93.1498 159.467 93.1498C156.312 93.1498 153.76 95.705 153.76 98.8177C153.76 100.955 154.92 102.813 156.637 103.789C157.472 104.253 158.446 104.532 159.467 104.532C161.787 104.532 163.782 103.138 164.663 101.141H167.54V116.1H172.133V98.8177C172.087 98.6783 172.087 98.446 171.994 98.2602ZM220.572 69.3167C218.252 69.3167 216.257 70.7104 215.375 72.7081H199.693V54.961H195.1V74.9846C195.1 76.239 196.121 77.261 197.373 77.261H215.375C216.257 79.2587 218.252 80.6525 220.572 80.6525C223.727 80.6525 226.232 78.0973 226.232 74.9381C226.232 71.779 223.727 69.3167 220.572 69.3167ZM192.084 116.147C191.481 114.846 190.46 113.824 189.161 113.266V55.0075H184.568V113.266C183.269 113.824 182.248 114.892 181.645 116.147C181.598 116.193 181.598 116.286 181.552 116.332C181.274 116.983 181.134 117.68 181.134 118.423C181.134 121.582 183.686 124.138 186.795 124.138C188.883 124.138 190.739 122.976 191.713 121.304C192.223 120.467 192.455 119.492 192.455 118.423C192.594 117.633 192.409 116.844 192.084 116.147ZM173.061 55.0075V76.0996H157.054C156.173 74.1019 154.178 72.7081 151.858 72.7081C148.703 72.7081 146.151 75.2633 146.151 78.4225C146.151 81.5817 148.703 84.0904 151.858 84.0904C154.178 84.0904 156.173 82.6967 157.054 80.699H175.335C176.587 80.699 177.608 79.6769 177.608 78.4225V55.054H173.061V55.0075ZM171.02 133.336C170.927 133.29 170.788 133.29 170.695 133.243C170.509 133.197 170.37 133.15 170.231 133.104C170.834 133.336 171.484 133.569 172.087 133.708L171.02 133.336ZM220.572 69.3167C218.252 69.3167 216.257 70.7104 215.375 72.7081H199.693V54.961H195.1V74.9846C195.1 76.239 196.121 77.261 197.373 77.261H215.375C216.257 79.2587 218.252 80.6525 220.572 80.6525C223.727 80.6525 226.232 78.0973 226.232 74.9381C226.232 71.779 223.727 69.3167 220.572 69.3167ZM192.084 116.147C191.481 114.846 190.46 113.824 189.161 113.266V55.0075H184.568V113.266C183.269 113.824 182.248 114.892 181.645 116.147C181.598 116.193 181.598 116.286 181.552 116.332C181.274 116.983 181.134 117.68 181.134 118.423C181.134 121.582 183.686 124.138 186.795 124.138C188.883 124.138 190.739 122.976 191.713 121.304C192.223 120.467 192.455 119.492 192.455 118.423C192.594 117.633 192.409 116.844 192.084 116.147ZM173.061 55.0075V76.0996H157.054C156.173 74.1019 154.178 72.7081 151.858 72.7081C148.703 72.7081 146.151 75.2633 146.151 78.4225C146.151 81.5817 148.703 84.0904 151.858 84.0904C154.178 84.0904 156.173 82.6967 157.054 80.699H175.335C176.587 80.699 177.608 79.6769 177.608 78.4225V55.054H173.061V55.0075ZM169.257 132.686L171.02 133.336L172.087 133.708V132.686H169.257ZM169.813 96.5877H164.663C163.782 94.59 161.787 93.1962 159.467 93.1962C156.312 93.1962 153.76 95.7515 153.76 98.8642C153.76 101.001 154.92 102.86 156.637 103.835V98.3067H171.994C171.762 97.2846 170.881 96.5877 169.813 96.5877ZM187.259 21C151.301 21 122.164 50.1758 122.164 86.181C122.164 122.186 151.301 151.362 187.259 151.362C223.217 151.362 252.354 122.186 252.354 86.181C252.354 50.1758 223.17 21 187.259 21ZM169.21 132.686C168.978 132.593 168.793 132.546 168.561 132.454L169.21 132.686L171.02 133.336C170.927 133.29 170.788 133.29 170.695 133.243C170.509 133.197 170.37 133.15 170.231 133.104C169.86 132.965 169.535 132.825 169.21 132.686ZM202.848 107.273C206.003 107.273 208.509 104.718 208.509 101.559C208.509 99.2358 207.117 97.2381 205.122 96.3554V93.3821H236.533C233.053 117.494 212.267 136.077 187.212 136.077C181.923 136.077 176.866 135.241 172.087 133.708V98.8642C172.087 98.6319 172.041 98.446 171.994 98.2602C171.716 97.2846 170.834 96.5413 169.813 96.5413H164.663C163.782 94.5435 161.787 93.1498 159.467 93.1498C156.312 93.1498 153.76 95.705 153.76 98.8177C153.76 100.955 154.92 102.813 156.637 103.789C157.472 104.253 158.446 104.532 159.467 104.532C161.787 104.532 163.782 103.138 164.663 101.141H167.54V131.989C163.643 130.27 159.977 128.133 156.683 125.531C144.991 116.379 137.428 102.163 137.428 86.181C137.428 63.6023 152.461 44.5079 173.061 38.3754V76.0531H157.054C156.173 74.0554 154.178 72.6617 151.858 72.6617C148.703 72.6617 146.151 75.2169 146.151 78.376C146.151 81.5352 148.703 84.044 151.858 84.044C154.178 84.044 156.173 82.6502 157.054 80.6525H175.335C176.587 80.6525 177.608 79.6304 177.608 78.376V37.2604C179.882 36.7958 182.202 36.5171 184.568 36.3777V113.22C183.269 113.777 182.248 114.846 181.645 116.1C181.598 116.147 181.598 116.24 181.552 116.286C181.274 116.936 181.134 117.633 181.134 118.377C181.134 121.536 183.686 124.091 186.795 124.091C188.883 124.091 190.739 122.93 191.713 121.257C192.223 120.421 192.455 119.445 192.455 118.377C192.455 117.54 192.27 116.751 191.945 116.054C191.342 114.753 190.321 113.731 189.022 113.173V36.3777C191.017 36.4706 193.012 36.6565 194.961 36.9352V75.031C194.961 76.2854 195.981 77.3075 197.234 77.3075H215.236C216.118 79.3052 218.113 80.699 220.433 80.699C223.588 80.699 226.093 78.1438 226.093 74.9846C226.093 71.8254 223.541 69.3167 220.433 69.3167C218.113 69.3167 216.118 70.7104 215.236 72.7081H199.554V37.8644C221.036 43.3929 236.95 62.9519 236.95 86.181C236.95 87.0637 236.95 87.9465 236.904 88.7827H202.755C201.503 88.7827 200.482 89.8048 200.482 91.0592V96.309C198.487 97.1917 197.095 99.1894 197.095 101.512C197.141 104.718 199.693 107.273 202.848 107.273ZM169.813 96.5877H164.663C163.782 94.59 161.787 93.1962 159.467 93.1962C156.312 93.1962 153.76 95.7515 153.76 98.8642C153.76 101.001 154.92 102.86 156.637 103.835V98.3067H171.994C171.762 97.2846 170.881 96.5877 169.813 96.5877ZM169.257 132.686L171.02 133.336L172.087 133.708V132.686H169.257ZM173.061 55.0075V76.0996H157.054C156.173 74.1019 154.178 72.7081 151.858 72.7081C148.703 72.7081 146.151 75.2633 146.151 78.4225C146.151 81.5817 148.703 84.0904 151.858 84.0904C154.178 84.0904 156.173 82.6967 157.054 80.699H175.335C176.587 80.699 177.608 79.6769 177.608 78.4225V55.054H173.061V55.0075ZM192.084 116.147C191.481 114.846 190.46 113.824 189.161 113.266V55.0075H184.568V113.266C183.269 113.824 182.248 114.892 181.645 116.147C181.598 116.193 181.598 116.286 181.552 116.332C181.274 116.983 181.134 117.68 181.134 118.423C181.134 121.582 183.686 124.138 186.795 124.138C188.883 124.138 190.739 122.976 191.713 121.304C192.223 120.467 192.455 119.492 192.455 118.423C192.594 117.633 192.409 116.844 192.084 116.147ZM220.572 69.3167C218.252 69.3167 216.257 70.7104 215.375 72.7081H199.693V54.961H195.1V74.9846C195.1 76.239 196.121 77.261 197.373 77.261H215.375C216.257 79.2587 218.252 80.6525 220.572 80.6525C223.727 80.6525 226.232 78.0973 226.232 74.9381C226.232 71.779 223.727 69.3167 220.572 69.3167ZM173.061 55.0075V76.0996H157.054C156.173 74.1019 154.178 72.7081 151.858 72.7081C148.703 72.7081 146.151 75.2633 146.151 78.4225C146.151 81.5817 148.703 84.0904 151.858 84.0904C154.178 84.0904 156.173 82.6967 157.054 80.699H175.335C176.587 80.699 177.608 79.6769 177.608 78.4225V55.054H173.061V55.0075ZM192.084 116.147C191.481 114.846 190.46 113.824 189.161 113.266V55.0075H184.568V113.266C183.269 113.824 182.248 114.892 181.645 116.147C181.598 116.193 181.598 116.286 181.552 116.332C181.274 116.983 181.134 117.68 181.134 118.423C181.134 121.582 183.686 124.138 186.795 124.138C188.883 124.138 190.739 122.976 191.713 121.304C192.223 120.467 192.455 119.492 192.455 118.423C192.594 117.633 192.409 116.844 192.084 116.147ZM220.572 69.3167C218.252 69.3167 216.257 70.7104 215.375 72.7081H199.693V54.961H195.1V74.9846C195.1 76.239 196.121 77.261 197.373 77.261H215.375C216.257 79.2587 218.252 80.6525 220.572 80.6525C223.727 80.6525 226.232 78.0973 226.232 74.9381C226.232 71.779 223.727 69.3167 220.572 69.3167ZM171.994 98.2602C171.716 97.2846 170.834 96.5413 169.813 96.5413H164.663C163.782 94.5435 161.787 93.1498 159.467 93.1498C156.312 93.1498 153.76 95.705 153.76 98.8177C153.76 100.955 154.92 102.813 156.637 103.789C157.472 104.253 158.446 104.532 159.467 104.532C161.787 104.532 163.782 103.138 164.663 101.141H167.54V116.1H172.133V98.8177C172.087 98.6783 172.087 98.446 171.994 98.2602ZM171.02 133.336C170.927 133.29 170.788 133.29 170.695 133.243C170.509 133.197 170.37 133.15 170.231 133.104C170.834 133.336 171.484 133.569 172.087 133.708V133.615C171.716 133.522 171.391 133.429 171.02 133.336Z" fill="url(#paint11_linear_4_99)"/>
<path d="M220.572 80.7454C223.698 80.7454 226.232 78.2078 226.232 75.0775C226.232 71.9472 223.698 69.4096 220.572 69.4096C217.446 69.4096 214.911 71.9472 214.911 75.0775C214.911 78.2078 217.446 80.7454 220.572 80.7454Z" fill="url(#paint12_linear_4_99)"/>
<path d="M83.8396 73.2192V65.9717C83.8396 59.0029 82.5405 54.2177 79.8958 51.6625C77.2512 49.1073 72.2403 47.8065 64.8632 47.8065H19.0228C11.5529 47.8065 6.54199 49.1073 3.94375 51.6625C1.29912 54.2177 0 59.0029 0 65.9717V106.437C0 113.452 1.29912 118.237 3.94375 120.793C6.54199 123.348 11.5993 124.602 19.0228 124.602H64.8168C72.2403 124.602 77.2512 123.348 79.8494 120.793C82.4941 118.237 83.7932 113.452 83.7932 106.437V92.5923L65.9303 96.6806V110.154H17.8629V61.5581H65.9767V76.0996L83.8396 73.2192ZM349.185 95.6121H359.206C365.331 95.6121 369.739 94.4042 372.476 92.0348C375.213 89.6654 376.559 85.8558 376.559 80.699V62.6731C376.559 57.4233 375.213 53.6602 372.476 51.2908C369.739 48.9215 365.331 47.76 359.206 47.76H293.601V124.556H311.139V95.5656H328.074L358.974 124.556H384.586L349.185 95.6121ZM318.934 82.4644L311.139 90.2694V61.0936H351.273C354.381 61.0936 356.515 61.5581 357.629 62.4408C358.789 63.3236 359.346 64.9031 359.346 67.1331V76.3319C359.346 78.6083 358.789 80.1879 357.629 81.1171C356.515 81.9998 354.381 82.4644 351.273 82.4644H318.934ZM456.872 110.154V91.1056H492.273V78.0508H456.872V60.9077H517.467L504.383 47.8065H439.056V124.602H518.302V110.154H456.872ZM595.368 61.6046V61.2329H655.081V47.76H577.505V124.556H595.368V95.4263H627.66V81.3958H603.905L595.089 90.2229V61.0471L595.368 61.6046Z" fill="white"/>
<mask id="mask0_4_99" style="mask-type:luminance" maskUnits="userSpaceOnUse" x="122" y="21" width="131" height="131">
<path d="M171.02 133.336C170.927 133.29 170.788 133.29 170.695 133.243C170.509 133.197 170.37 133.15 170.231 133.104C170.834 133.336 171.484 133.569 172.087 133.708V133.615C171.716 133.522 171.391 133.429 171.02 133.336ZM171.994 98.2602C171.716 97.2846 170.834 96.5413 169.813 96.5413H164.663C163.782 94.5435 161.787 93.1498 159.467 93.1498C156.312 93.1498 153.76 95.705 153.76 98.8177C153.76 100.955 154.92 102.813 156.637 103.789C157.472 104.253 158.446 104.532 159.467 104.532C161.787 104.532 163.782 103.138 164.663 101.141H167.54V116.1H172.133V98.8177C172.087 98.6783 172.087 98.446 171.994 98.2602V98.2602ZM220.572 69.3167C218.252 69.3167 216.257 70.7104 215.375 72.7081H199.693V54.961H195.1V74.9846C195.1 76.239 196.121 77.261 197.373 77.261H215.375C216.257 79.2587 218.252 80.6525 220.572 80.6525C223.727 80.6525 226.232 78.0973 226.232 74.9381C226.232 71.779 223.727 69.3167 220.572 69.3167V69.3167ZM192.084 116.147C191.481 114.846 190.46 113.824 189.161 113.266V55.0075H184.568V113.266C183.269 113.824 182.248 114.892 181.645 116.147C181.598 116.193 181.598 116.286 181.552 116.332C181.274 116.983 181.134 117.68 181.134 118.423C181.134 121.582 183.686 124.138 186.795 124.138C188.883 124.138 190.739 122.976 191.713 121.304C192.223 120.467 192.455 119.492 192.455 118.423C192.594 117.633 192.409 116.844 192.084 116.147V116.147ZM173.061 55.0075V76.0996H157.054C156.173 74.1019 154.178 72.7081 151.858 72.7081C148.703 72.7081 146.151 75.2633 146.151 78.4225C146.151 81.5817 148.703 84.0904 151.858 84.0904C154.178 84.0904 156.173 82.6967 157.054 80.699H175.335C176.587 80.699 177.608 79.6769 177.608 78.4225V55.054H173.061V55.0075ZM171.02 133.336C170.927 133.29 170.788 133.29 170.695 133.243C170.509 133.197 170.37 133.15 170.231 133.104C170.834 133.336 171.484 133.569 172.087 133.708L171.02 133.336ZM220.572 69.3167C218.252 69.3167 216.257 70.7104 215.375 72.7081H199.693V54.961H195.1V74.9846C195.1 76.239 196.121 77.261 197.373 77.261H215.375C216.257 79.2587 218.252 80.6525 220.572 80.6525C223.727 80.6525 226.232 78.0973 226.232 74.9381C226.232 71.779 223.727 69.3167 220.572 69.3167V69.3167ZM192.084 116.147C191.481 114.846 190.46 113.824 189.161 113.266V55.0075H184.568V113.266C183.269 113.824 182.248 114.892 181.645 116.147C181.598 116.193 181.598 116.286 181.552 116.332C181.274 116.983 181.134 117.68 181.134 118.423C181.134 121.582 183.686 124.138 186.795 124.138C188.883 124.138 190.739 122.976 191.713 121.304C192.223 120.467 192.455 119.492 192.455 118.423C192.594 117.633 192.409 116.844 192.084 116.147V116.147ZM173.061 55.0075V76.0996H157.054C156.173 74.1019 154.178 72.7081 151.858 72.7081C148.703 72.7081 146.151 75.2633 146.151 78.4225C146.151 81.5817 148.703 84.0904 151.858 84.0904C154.178 84.0904 156.173 82.6967 157.054 80.699H175.335C176.587 80.699 177.608 79.6769 177.608 78.4225V55.054H173.061V55.0075ZM169.257 132.686L171.02 133.336L172.087 133.708V132.686H169.257ZM169.813 96.5877H164.663C163.782 94.59 161.787 93.1962 159.467 93.1962C156.312 93.1962 153.76 95.7515 153.76 98.8642C153.76 101.001 154.92 102.86 156.637 103.835V98.3067H171.994C171.762 97.2846 170.881 96.5877 169.813 96.5877ZM187.259 21C151.301 21 122.164 50.1758 122.164 86.181C122.164 122.186 151.301 151.362 187.259 151.362C223.217 151.362 252.354 122.186 252.354 86.181C252.354 50.1758 223.17 21 187.259 21V21ZM169.21 132.686C168.978 132.593 168.793 132.546 168.561 132.454L169.21 132.686L171.02 133.336C170.927 133.29 170.788 133.29 170.695 133.243C170.509 133.197 170.37 133.15 170.231 133.104C169.86 132.965 169.535 132.825 169.21 132.686ZM202.848 107.273C206.003 107.273 208.509 104.718 208.509 101.559C208.509 99.2358 207.117 97.2381 205.122 96.3554V93.3821H236.533C233.053 117.494 212.267 136.077 187.212 136.077C181.923 136.077 176.866 135.241 172.087 133.708V98.8642C172.087 98.6319 172.041 98.446 171.994 98.2602C171.716 97.2846 170.834 96.5413 169.813 96.5413H164.663C163.782 94.5435 161.787 93.1498 159.467 93.1498C156.312 93.1498 153.76 95.705 153.76 98.8177C153.76 100.955 154.92 102.813 156.637 103.789C157.472 104.253 158.446 104.532 159.467 104.532C161.787 104.532 163.782 103.138 164.663 101.141H167.54V131.989C163.643 130.27 159.977 128.133 156.683 125.531C144.991 116.379 137.428 102.163 137.428 86.181C137.428 63.6023 152.461 44.5079 173.061 38.3754V76.0531H157.054C156.173 74.0554 154.178 72.6617 151.858 72.6617C148.703 72.6617 146.151 75.2169 146.151 78.376C146.151 81.5352 148.703 84.044 151.858 84.044C154.178 84.044 156.173 82.6502 157.054 80.6525H175.335C176.587 80.6525 177.608 79.6304 177.608 78.376V37.2604C179.882 36.7958 182.202 36.5171 184.568 36.3777V113.22C183.269 113.777 182.248 114.846 181.645 116.1C181.598 116.147 181.598 116.24 181.552 116.286C181.274 116.936 181.134 117.633 181.134 118.377C181.134 121.536 183.686 124.091 186.795 124.091C188.883 124.091 190.739 122.93 191.713 121.257C192.223 120.421 192.455 119.445 192.455 118.377C192.455 117.54 192.27 116.751 191.945 116.054C191.342 114.753 190.321 113.731 189.022 113.173V36.3777C191.017 36.4706 193.012 36.6565 194.961 36.9352V75.031C194.961 76.2854 195.981 77.3075 197.234 77.3075H215.236C216.118 79.3052 218.113 80.699 220.433 80.699C223.588 80.699 226.093 78.1438 226.093 74.9846C226.093 71.8254 223.541 69.3167 220.433 69.3167C218.113 69.3167 216.118 70.7104 215.236 72.7081H199.554V37.8644C221.036 43.3929 236.95 62.9519 236.95 86.181C236.95 87.0637 236.95 87.9465 236.904 88.7827H202.755C201.503 88.7827 200.482 89.8048 200.482 91.0592V96.309C198.487 97.1917 197.095 99.1894 197.095 101.512C197.141 104.718 199.693 107.273 202.848 107.273V107.273ZM169.813 96.5877H164.663C163.782 94.59 161.787 93.1962 159.467 93.1962C156.312 93.1962 153.76 95.7515 153.76 98.8642C153.76 101.001 154.92 102.86 156.637 103.835V98.3067H171.994C171.762 97.2846 170.881 96.5877 169.813 96.5877ZM169.257 132.686L171.02 133.336L172.087 133.708V132.686H169.257ZM173.061 55.0075V76.0996H157.054C156.173 74.1019 154.178 72.7081 151.858 72.7081C148.703 72.7081 146.151 75.2633 146.151 78.4225C146.151 81.5817 148.703 84.0904 151.858 84.0904C154.178 84.0904 156.173 82.6967 157.054 80.699H175.335C176.587 80.699 177.608 79.6769 177.608 78.4225V55.054H173.061V55.0075ZM192.084 116.147C191.481 114.846 190.46 113.824 189.161 113.266V55.0075H184.568V113.266C183.269 113.824 182.248 114.892 181.645 116.147C181.598 116.193 181.598 116.286 181.552 116.332C181.274 116.983 181.134 117.68 181.134 118.423C181.134 121.582 183.686 124.138 186.795 124.138C188.883 124.138 190.739 122.976 191.713 121.304C192.223 120.467 192.455 119.492 192.455 118.423C192.594 117.633 192.409 116.844 192.084 116.147V116.147ZM220.572 69.3167C218.252 69.3167 216.257 70.7104 215.375 72.7081H199.693V54.961H195.1V74.9846C195.1 76.239 196.121 77.261 197.373 77.261H215.375C216.257 79.2587 218.252 80.6525 220.572 80.6525C223.727 80.6525 226.232 78.0973 226.232 74.9381C226.232 71.779 223.727 69.3167 220.572 69.3167V69.3167ZM173.061 55.0075V76.0996H157.054C156.173 74.1019 154.178 72.7081 151.858 72.7081C148.703 72.7081 146.151 75.2633 146.151 78.4225C146.151 81.5817 148.703 84.0904 151.858 84.0904C154.178 84.0904 156.173 82.6967 157.054 80.699H175.335C176.587 80.699 177.608 79.6769 177.608 78.4225V55.054H173.061V55.0075ZM192.084 116.147C191.481 114.846 190.46 113.824 189.161 113.266V55.0075H184.568V113.266C183.269 113.824 182.248 114.892 181.645 116.147C181.598 116.193 181.598 116.286 181.552 116.332C181.274 116.983 181.134 117.68 181.134 118.423C181.134 121.582 183.686 124.138 186.795 124.138C188.883 124.138 190.739 122.976 191.713 121.304C192.223 120.467 192.455 119.492 192.455 118.423C192.594 117.633 192.409 116.844 192.084 116.147V116.147ZM220.572 69.3167C218.252 69.3167 216.257 70.7104 215.375 72.7081H199.693V54.961H195.1V74.9846C195.1 76.239 196.121 77.261 197.373 77.261H215.375C216.257 79.2587 218.252 80.6525 220.572 80.6525C223.727 80.6525 226.232 78.0973 226.232 74.9381C226.232 71.779 223.727 69.3167 220.572 69.3167V69.3167ZM171.994 98.2602C171.716 97.2846 170.834 96.5413 169.813 96.5413H164.663C163.782 94.5435 161.787 93.1498 159.467 93.1498C156.312 93.1498 153.76 95.705 153.76 98.8177C153.76 100.955 154.92 102.813 156.637 103.789C157.472 104.253 158.446 104.532 159.467 104.532C161.787 104.532 163.782 103.138 164.663 101.141H167.54V116.1H172.133V98.8177C172.087 98.6783 172.087 98.446 171.994 98.2602V98.2602ZM171.02 133.336C170.927 133.29 170.788 133.29 170.695 133.243C170.509 133.197 170.37 133.15 170.231 133.104C170.834 133.336 171.484 133.569 172.087 133.708V133.615C171.716 133.522 171.391 133.429 171.02 133.336Z" fill="white"/>
</mask>
<g mask="url(#mask0_4_99)">
<path opacity="0.6" d="M108.848 158.703H259.685C272.165 158.703 282.28 148.575 282.28 136.077V32.3358C282.28 19.8385 272.165 9.71063 259.685 9.71063H108.848C96.3668 9.71063 86.2523 19.8385 86.2523 32.3358V136.077C86.2523 148.575 96.3668 158.703 108.848 158.703Z" fill="url(#paint13_linear_4_99)"/>
</g>
<line x1="721" y1="4.37114e-08" x2="721" y2="171" stroke="white" stroke-width="2"/>
<defs>
<linearGradient id="paint0_linear_4_99" x1="984.371" y1="31.6849" x2="1014.88" y2="56.9473" gradientUnits="userSpaceOnUse">
<stop stop-color="#0EB7D9"/>
<stop offset="1" stop-color="#2B4556"/>
</linearGradient>
<linearGradient id="paint1_linear_4_99" x1="989.615" y1="72.6768" x2="1007.73" y2="155.614" gradientUnits="userSpaceOnUse">
<stop stop-color="#0EB7D9"/>
<stop offset="1" stop-color="#2B4556"/>
</linearGradient>
<linearGradient id="paint2_linear_4_99" x1="917.638" y1="102.979" x2="948.786" y2="158.411" gradientUnits="userSpaceOnUse">
<stop stop-color="#0EB7D9"/>
<stop offset="1" stop-color="#2B4556"/>
</linearGradient>
<linearGradient id="paint3_linear_4_99" x1="924.446" y1="39.7533" x2="934.783" y2="84.4691" gradientUnits="userSpaceOnUse">
<stop stop-color="#0EB7D9"/>
<stop offset="1" stop-color="#2B4556"/>
</linearGradient>
<linearGradient id="paint4_linear_4_99" x1="175.331" y1="36.1626" x2="175.331" y2="52.6395" gradientUnits="userSpaceOnUse">
<stop stop-color="#1D1D1B"/>
<stop offset="1" stop-color="#DCDFE4" stop-opacity="0.25"/>
</linearGradient>
<linearGradient id="paint5_linear_4_99" x1="192.14" y1="35.1057" x2="192.14" y2="52.5071" gradientUnits="userSpaceOnUse">
<stop stop-color="#1D1D1B"/>
<stop offset="1" stop-color="#DCDFE4" stop-opacity="0.25"/>
</linearGradient>
<linearGradient id="paint6_linear_4_99" x1="169.804" y1="135.356" x2="169.804" y2="117.919" gradientUnits="userSpaceOnUse">
<stop stop-color="#1D1D1B"/>
<stop offset="1" stop-color="#DCDFE4" stop-opacity="0.25"/>
</linearGradient>
<linearGradient id="paint7_linear_4_99" x1="146.322" y1="72.8127" x2="153.91" y2="80.3912" gradientUnits="userSpaceOnUse">
<stop stop-color="white"/>
<stop offset="0.605" stop-color="#E7E8EC" stop-opacity="0.395"/>
<stop offset="1" stop-color="#DCDFE4" stop-opacity="0"/>
</linearGradient>
<linearGradient id="paint8_linear_4_99" x1="197.303" y1="96.0372" x2="204.891" y2="103.615" gradientUnits="userSpaceOnUse">
<stop stop-color="white"/>
<stop offset="0.229" stop-color="#F3F4F6" stop-opacity="0.771"/>
<stop offset="0.67" stop-color="#E2E4E8" stop-opacity="0.33"/>
<stop offset="1" stop-color="#DCDFE4" stop-opacity="0"/>
</linearGradient>
<linearGradient id="paint9_linear_4_99" x1="181.235" y1="112.94" x2="188.823" y2="120.519" gradientUnits="userSpaceOnUse">
<stop stop-color="white"/>
<stop offset="0.229" stop-color="#F3F4F6" stop-opacity="0.771"/>
<stop offset="0.67" stop-color="#E2E4E8" stop-opacity="0.33"/>
<stop offset="1" stop-color="#DCDFE4" stop-opacity="0"/>
</linearGradient>
<linearGradient id="paint10_linear_4_99" x1="153.882" y1="93.4156" x2="161.471" y2="100.994" gradientUnits="userSpaceOnUse">
<stop stop-color="white"/>
<stop offset="0.229" stop-color="#F3F4F6" stop-opacity="0.771"/>
<stop offset="0.67" stop-color="#E2E4E8" stop-opacity="0.33"/>
<stop offset="1" stop-color="#DCDFE4" stop-opacity="0"/>
</linearGradient>
<linearGradient id="paint11_linear_4_99" x1="171.327" y1="35.9233" x2="243.896" y2="264.71" gradientUnits="userSpaceOnUse">
<stop stop-color="#0EB8DB"/>
<stop offset="1" stop-color="#DCDFE4" stop-opacity="0.25"/>
</linearGradient>
<linearGradient id="paint12_linear_4_99" x1="215.03" y1="69.5169" x2="222.618" y2="77.0954" gradientUnits="userSpaceOnUse">
<stop stop-color="white"/>
<stop offset="0.229" stop-color="#F3F4F6" stop-opacity="0.771"/>
<stop offset="0.67" stop-color="#E2E4E8" stop-opacity="0.33"/>
<stop offset="1" stop-color="#DCDFE4" stop-opacity="0"/>
</linearGradient>
<linearGradient id="paint13_linear_4_99" x1="220.683" y1="156.766" x2="157.383" y2="30.9412" gradientUnits="userSpaceOnUse">
<stop stop-color="#0A0C1B"/>
<stop offset="1" stop-color="#0A0C1B" stop-opacity="0"/>
</linearGradient>
</defs>
</svg>
