<?xml version="1.0" encoding="UTF-8" standalone="no"?>
<!DOCTYPE svg PUBLIC "-//W3C//DTD SVG 1.1//EN" "http://www.w3.org/Graphics/SVG/1.1/DTD/svg11.dtd">
<svg width="100%" height="100%" viewBox="0 0 1920 1080" version="1.1" xmlns="http://www.w3.org/2000/svg" xmlns:xlink="http://www.w3.org/1999/xlink" xml:space="preserve" xmlns:serif="http://www.serif.com/" style="fill-rule:evenodd;clip-rule:evenodd;stroke-linecap:round;stroke-linejoin:round;stroke-miterlimit:1.5;">
    <g transform="matrix(72.0398,-0.0172305,0.0172305,72.0398,-10675.6,-18631.8)">
        <g transform="matrix(12,0,0,12,148.569,270.731)">
            <path d="M0.714,-0L0.521,-0L0.298,-0.314L0.227,-0.241L0.227,-0L0.079,-0L0.079,-0.72L0.227,-0.72L0.227,-0.423L0.504,-0.72L0.699,-0.72L0.404,-0.423L0.714,-0Z" style="fill:white;fill-rule:nonzero;"/>
        </g>
    </g>
    <g transform="matrix(68.2089,-0.0163142,0.0163142,68.2089,-64855.8,-30894.7)">
        <g transform="matrix(12,0,0,12,969.765,465.683)">
            <path d="M0.337,-0.104C0.373,-0.104 0.402,-0.108 0.424,-0.116C0.466,-0.131 0.487,-0.159 0.487,-0.199C0.487,-0.223 0.476,-0.241 0.456,-0.254C0.435,-0.267 0.402,-0.278 0.357,-0.288L0.281,-0.305C0.206,-0.322 0.155,-0.34 0.126,-0.36C0.077,-0.394 0.053,-0.445 0.053,-0.516C0.053,-0.581 0.077,-0.634 0.124,-0.677C0.17,-0.719 0.239,-0.741 0.33,-0.741C0.406,-0.741 0.471,-0.721 0.524,-0.68C0.578,-0.64 0.606,-0.582 0.608,-0.505L0.464,-0.505C0.461,-0.549 0.442,-0.579 0.407,-0.598C0.384,-0.61 0.355,-0.616 0.32,-0.616C0.281,-0.616 0.25,-0.608 0.227,-0.592C0.204,-0.577 0.192,-0.555 0.192,-0.527C0.192,-0.501 0.204,-0.482 0.227,-0.469C0.241,-0.461 0.272,-0.451 0.32,-0.439L0.444,-0.41C0.499,-0.397 0.54,-0.379 0.567,-0.357C0.61,-0.324 0.632,-0.275 0.632,-0.21C0.632,-0.145 0.607,-0.09 0.556,-0.047C0.506,-0.003 0.435,0.019 0.343,0.019C0.25,0.019 0.176,-0.003 0.122,-0.046C0.068,-0.088 0.042,-0.147 0.042,-0.222L0.185,-0.222C0.19,-0.189 0.199,-0.165 0.212,-0.148C0.236,-0.119 0.278,-0.104 0.337,-0.104Z" style="fill:white;fill-rule:nonzero;"/>
        </g>
    </g>
    <g transform="matrix(1.45644,-0.000348353,0.000348353,1.45644,-159.45,-130.175)">
        <path d="M682.956,450.296L682.956,480.156" style="fill:none;stroke:white;stroke-width:15.11px;"/>
    </g>
    <g transform="matrix(1.45644,-0.000348353,0.000348353,1.45644,-159.45,-130.175)">
        <path d="M715.691,451.275L715.819,480.728" style="fill:none;stroke:white;stroke-width:15.11px;"/>
    </g>
    <g transform="matrix(1.45644,-0.000348353,0.000348353,1.45644,-159.45,-130.175)">
        <path d="M650.272,481.204L659.816,422.501L738.605,421.961L748.017,481.857" style="fill:none;stroke:white;stroke-width:15.11px;"/>
    </g>
    <g transform="matrix(1.45644,-0.000348353,0.000348353,1.45644,-159.45,-130.175)">
        <path d="M682.575,422.345L682.982,357.277L661.186,332.216L676.36,275.625L721.655,275.518L740.177,329.297L715.971,357.587L716.396,417.515" style="fill:none;stroke:white;stroke-width:15.11px;"/>
    </g>
    <g transform="matrix(1.34104,-0.00032075,0.00024308,1.0163,-247.173,76.5731)">
        <path d="M1147.36,495.299C1147.36,494.352 1146.78,493.583 1146.06,493.583L693.128,493.583C691.459,493.583 690.105,495.371 690.105,497.573L690.105,699.171C690.105,736.993 713.376,767.7 742.039,767.7L1095.42,767.7C1124.09,767.7 1147.36,736.993 1147.36,699.171L1147.36,495.299Z" style="fill:rgb(235,235,235);fill-opacity:0;stroke:white;stroke-width:18.49px;"/>
    </g>
    <g transform="matrix(1.08805,-0.00026024,0.000230424,0.963391,53.1603,231.768)">
        <path d="M575.157,446.359L1133.27,445.575" style="fill:none;stroke:white;stroke-width:21.41px;"/>
    </g>
    <g transform="matrix(1.45644,-0.000348353,0.000348353,1.45644,-159.45,-130.175)">
        <path d="M834.093,485.422L833.325,336.17L808.875,336.427C808.875,336.427 797.654,352.547 790.01,352.33C782.366,352.113 769.599,352.201 769.599,352.201C769.599,352.201 768.831,276.533 813.435,275.769C858.039,275.005 881.676,274.61 881.676,274.61C881.676,274.61 901.454,305.279 931.213,274.018C933.107,272.028 945.436,273.414 945.436,273.414L945.038,337.235C945.038,337.235 931.433,338.402 929.518,336.738C917.812,326.567 900.736,320.653 882.005,337.34C880.869,338.352 833.325,336.17 833.325,336.17" style="fill:none;stroke:white;stroke-width:15.11px;"/>
    </g>
    <g transform="matrix(1.45644,-0.000348353,0.000348353,1.45644,-159.45,-130.175)">
        <path d="M875.016,485.117L875.606,338.238" style="fill:none;stroke:white;stroke-width:15.11px;"/>
    </g>
    <g transform="matrix(1.45644,-0.000348353,-0.000180506,-0.754687,-159.158,1088.93)">
        <path d="M986.671,579.401C986.671,563.918 980.157,551.347 972.134,551.347L603.443,551.347C595.42,551.347 588.907,563.918 588.907,579.401L588.907,635.51C588.907,650.993 595.42,663.564 603.443,663.564L972.134,663.564C980.157,663.564 986.671,650.993 986.671,635.51L986.671,579.401Z" style="fill:white;stroke:white;stroke-width:18.97px;"/>
    </g>
</svg>
