<svg xmlns="http://www.w3.org/2000/svg" viewBox="0 0 136 375" width="136" height="375"><g xmlns="http://www.w3.org/2000/svg" transform="matrix(0 -1 1 0 -0 375)"><g clip-path="url(#clip0_4_73)"><path d="M0.585006 135L0.5 0.613001C7.913 0.611501 19.717 0.613001 27.13 0.613001C27.1009 21.9309 27.128 43.2491 27.128 64.567H27.546L68.781 0.610001C79.1873 0.630201 89.5937 0.617701 100 0.610001C84.4506 19.6701 70.7903 40.4512 56.388 60.387C72.2623 85.247 87.8322 110.331 104 135C96.6983 135 82.3017 135 75 135C62.3088 117.417 51.7839 97.803 40.295 79.406L27.128 94.872V135C18.2803 135 9.43267 135 0.585006 135Z" fill="white" /><path d="M282.013 100.724V96.544C282.013 93.618 282.013 92.155 282.013 92.155H308.556C308.556 92.155 308.556 93.618 308.556 96.544V98.216C308.556 103.511 309.601 107.133 311.691 109.084C313.781 111.035 317.613 112.01 323.186 112.01H333.009C338.443 112.01 342.205 110.965 344.295 108.875C346.524 106.785 347.639 102.884 347.639 97.171V94.663C347.639 90.622 345.967 87.557 342.623 85.467C339.418 83.238 335.378 81.914 330.501 81.496C325.624 81.078 320.33 80.312 314.617 79.197C309.044 77.943 303.819 76.41 298.942 74.599C294.065 72.648 289.955 68.9561 286.611 63.5221C283.406 57.9487 281.804 50.8427 281.804 42.204V34.889C281.804 24.021 284.869 15.5914 291 9.6C297.131 3.6087 305.63 0.613001 316.498 0.613001H337.398C348.405 0.613001 356.974 3.6087 363.105 9.6C369.236 15.5914 372.301 24.021 372.301 34.889V38.8601C372.301 41.786 372.301 43.2491 372.301 43.2491H345.758C345.758 43.2491 345.758 41.786 345.758 38.8601V37.606C345.758 32.1721 344.713 28.4797 342.623 26.529C340.533 24.5784 336.701 23.603 331.128 23.603H322.977C317.264 23.603 313.363 24.7177 311.273 26.947C309.322 29.037 308.347 33.217 308.347 39.487V43.458C308.347 50.0067 314.06 53.7687 325.485 54.7441C337.328 55.7194 347.848 58.0881 357.044 61.85C361.921 63.9401 365.961 67.7021 369.166 73.136C372.51 78.431 374.182 85.258 374.182 93.618V100.724C374.182 111.592 371.117 120.022 364.986 126.013C358.855 132.004 350.356 135 339.488 135H316.707C305.839 135 297.34 132.004 291.209 126.013C285.078 120.022 282.013 111.592 282.013 100.724Z" fill="white" /><path fill-rule="evenodd" clip-rule="evenodd" d="M207.315 33.5337L227.541 33.5356C227.541 33.5356 226.323 24.4797 229.243 22.5049C232.165 20.5283 236.694 18.1381 247.203 22.5049C257.713 26.8737 264.929 33.5337 264.929 33.5337L268.53 30.4324C268.53 30.4324 254.019 10.7519 241.78 4.9288C229.539 -0.892502 207.247 0.9698 207.247 0.9698C207.247 0.9698 203.189 8.5923 197.082 8.5923C190.978 8.5923 190.393 0.9698 190.393 0.9698L179.768 2.2316V25.8559L190.391 27.0967C190.391 27.0967 191.792 20.0842 197.083 20.3396C208.47 20.8924 207.315 33.5337 207.315 33.5337Z" fill="url(#paint0_linear_4_73)" /><path fill-rule="evenodd" clip-rule="evenodd" d="M227.541 40.7864L229.245 135.302H204.172L207.313 40.7864H227.541Z" fill="url(#paint1_linear_4_73)" /><path d="M159.403 77.519C160.018 76.993 160.379 76.213 160.379 75.402V70.388C160.379 69.0665 159.313 68.0005 157.991 68.0005H124.813C123.491 68.0005 122.426 69.0665 122.426 70.388L122.441 75.417C122.441 76.228 122.801 77.008 123.416 77.534C125.263 79.11 126.434 81.422 126.434 84.034C126.434 86.647 125.248 88.974 123.416 90.535C122.801 91.061 122.441 91.841 122.441 92.652V115.472C122.441 125.921 130.623 134.884 141.057 135.079C151.701 135.274 160.394 126.702 160.394 116.102V92.652C160.394 91.841 160.033 91.061 159.418 90.535C157.571 88.959 156.4 86.647 156.4 84.034C156.385 81.407 157.571 79.08 159.403 77.519ZM138.159 117.859C138.159 119.6 136.748 121.012 135.006 121.012C133.265 121.012 131.854 119.6 131.854 117.859V96.27C131.854 94.529 133.265 93.117 135.006 93.117C136.748 93.117 138.159 94.529 138.159 96.27V117.859ZM150.995 117.874C150.995 119.615 149.584 121.027 147.843 121.027C146.101 121.027 144.69 119.615 144.69 117.874V96.285C144.69 94.544 146.101 93.132 147.843 93.132C149.584 93.132 150.995 94.544 150.995 96.285V117.874Z" fill="url(#paint2_linear_4_73)" /><path d="M144.164 0.456699H138.429C137.499 0.456699 136.703 1.0422 136.403 1.913L128.521 25.5886C128.266 26.3543 128.476 27.195 129.046 27.7655L135.742 34.4613V59.8034C135.742 60.4339 136.253 60.9444 136.883 60.9444H145.711C146.341 60.9444 146.852 60.4339 146.852 59.8034V34.4613L153.548 27.7655C154.118 27.195 154.328 26.3543 154.073 25.5886L146.176 1.898C145.891 1.0422 145.095 0.456699 144.164 0.456699Z" fill="url(#paint3_linear_4_73)" /></g><defs><linearGradient id="paint0_linear_4_73" x1="203.153" y1="11.5399" x2="234.796" y2="37.7439" gradientUnits="userSpaceOnUse"><stop stop-color="#0EB7D9" /><stop offset="1" stop-color="#2B4556" /></linearGradient><linearGradient id="paint1_linear_4_73" x1="208.592" y1="54.0595" x2="227.379" y2="140.088" gradientUnits="userSpaceOnUse"><stop stop-color="#0EB7D9" /><stop offset="1" stop-color="#2B4556" /></linearGradient><linearGradient id="paint2_linear_4_73" x1="133.933" y1="85.491" x2="166.241" y2="142.989" gradientUnits="userSpaceOnUse"><stop stop-color="#0EB7D9" /><stop offset="1" stop-color="#2B4556" /></linearGradient><linearGradient id="paint3_linear_4_73" x1="140.995" y1="19.909" x2="151.717" y2="66.2914" gradientUnits="userSpaceOnUse"><stop stop-color="#0EB7D9" /><stop offset="1" stop-color="#2B4556" /></linearGradient><clipPath id="clip0_4_73"><rect width="375" height="136" fill="white" /></clipPath></defs></g></svg>