<?xml version="1.0" encoding="UTF-8" standalone="no" ?>
<!DOCTYPE svg PUBLIC "-//W3C//DTD SVG 1.1//EN" "http://www.w3.org/Graphics/SVG/1.1/DTD/svg11.dtd">
<svg xmlns="http://www.w3.org/2000/svg" xmlns:xlink="http://www.w3.org/1999/xlink" version="1.1" width="640" height="480" viewBox="0 0 640 480" xml:space="preserve">
<desc>Created with Fabric.js 3.6.6</desc>
<defs>
</defs>
<g transform="matrix(0.07 0 0 0.07 395.16 262.84)"  >
<g style=""   >
		<g transform="matrix(864.48 -0.21 0.21 864.48 -585.36 17.75)"  >
<path style="stroke: none; stroke-width: 1; stroke-dasharray: none; stroke-linecap: round; stroke-dashoffset: 0; stroke-linejoin: round; stroke-miterlimit: 1.5; fill: rgb(255,255,255); fill-rule: nonzero; opacity: 1;"  transform=" translate(-0.4, 0.36)" d="M 0.714 0 L 0.521 0 L 0.298 -0.314 L 0.227 -0.241 L 0.227 0 L 0.079 0 L 0.079 -0.72 L 0.227 -0.72 L 0.227 -0.423 L 0.504 -0.72 L 0.699 -0.72 L 0.404 -0.423 L 0.714 0 Z" stroke-linecap="round" />
</g>
		<g transform="matrix(818.51 -0.2 0.2 818.51 614.17 17.66)"  >
<path style="stroke: none; stroke-width: 1; stroke-dasharray: none; stroke-linecap: round; stroke-dashoffset: 0; stroke-linejoin: round; stroke-miterlimit: 1.5; fill: rgb(255,255,255); fill-rule: nonzero; opacity: 1;"  transform=" translate(-0.34, 0.36)" d="M 0.337 -0.104 C 0.373 -0.104 0.402 -0.108 0.424 -0.116 C 0.466 -0.131 0.487 -0.159 0.487 -0.199 C 0.487 -0.223 0.476 -0.241 0.456 -0.254 C 0.435 -0.267 0.402 -0.278 0.357 -0.288 L 0.281 -0.305 C 0.206 -0.322 0.155 -0.34 0.126 -0.36 C 0.077 -0.394 0.053 -0.445 0.053 -0.516 C 0.053 -0.581 0.077 -0.634 0.124 -0.677 C 0.17 -0.719 0.239 -0.741 0.33 -0.741 C 0.406 -0.741 0.471 -0.721 0.524 -0.68 C 0.578 -0.64 0.606 -0.582 0.608 -0.505 L 0.464 -0.505 C 0.461 -0.549 0.442 -0.579 0.407 -0.598 C 0.384 -0.61 0.355 -0.616 0.32 -0.616 C 0.281 -0.616 0.25 -0.608 0.227 -0.592 C 0.204 -0.577 0.192 -0.555 0.192 -0.527 C 0.192 -0.501 0.204 -0.482 0.227 -0.469 C 0.241 -0.461 0.272 -0.451 0.32 -0.439 L 0.444 -0.41 C 0.499 -0.397 0.54 -0.379 0.567 -0.357 C 0.61 -0.324 0.632 -0.275 0.632 -0.21 C 0.632 -0.145 0.607 -0.09 0.556 -0.047 C 0.506 -0.003 0.435 0.019 0.343 0.019 C 0.25 0.019 0.176 -0.003 0.122 -0.046 C 0.068 -0.088 0.042 -0.147 0.042 -0.222 L 0.185 -0.222 C 0.19 -0.189 0.199 -0.165 0.212 -0.148 C 0.236 -0.119 0.278 -0.104 0.337 -0.104 Z" stroke-linecap="round" />
</g>
		<g transform="matrix(1.46 0 0 1.46 -124.6 7.16)"  >
<path style="stroke: rgb(255,255,255); stroke-width: 15.11; stroke-dasharray: none; stroke-linecap: round; stroke-dashoffset: 0; stroke-linejoin: round; stroke-miterlimit: 1.5; fill: none; fill-rule: evenodd; opacity: 1;"  transform=" translate(-682.96, -465.23)" d="M 682.956 450.296 L 682.956 480.156" stroke-linecap="round" />
</g>
		<g transform="matrix(1.46 0 0 1.46 -76.83 8.28)"  >
<path style="stroke: rgb(255,255,255); stroke-width: 15.11; stroke-dasharray: none; stroke-linecap: round; stroke-dashoffset: 0; stroke-linejoin: round; stroke-miterlimit: 1.5; fill: none; fill-rule: evenodd; opacity: 1;"  transform=" translate(-715.75, -466)" d="M 715.691 451.275 L 715.819 480.728" stroke-linecap="round" />
</g>
		<g transform="matrix(1.46 0 0 1.46 -101.03 -12.24)"  >
<path style="stroke: rgb(255,255,255); stroke-width: 15.11; stroke-dasharray: none; stroke-linecap: round; stroke-dashoffset: 0; stroke-linejoin: round; stroke-miterlimit: 1.5; fill: none; fill-rule: evenodd; opacity: 1;"  transform=" translate(-699.14, -451.91)" d="M 650.272 481.204 L 659.816 422.501 L 738.605 421.961 L 748.017 481.857" stroke-linecap="round" />
</g>
		<g transform="matrix(1.46 0 0 1.46 -98.83 -162.22)"  >
<path style="stroke: rgb(255,255,255); stroke-width: 15.11; stroke-dasharray: none; stroke-linecap: round; stroke-dashoffset: 0; stroke-linejoin: round; stroke-miterlimit: 1.5; fill: none; fill-rule: evenodd; opacity: 1;"  transform=" translate(-700.68, -348.93)" d="M 682.575 422.345 L 682.982 357.277 L 661.186 332.216 L 676.36 275.625 L 721.655 275.518 L 740.177 329.297 L 715.971 357.587 L 716.396 417.515" stroke-linecap="round" />
</g>
		<g transform="matrix(1.34 0 0 1.02 25.04 177.2)"  >
<path style="stroke: rgb(255,255,255); stroke-width: 18.49; stroke-dasharray: none; stroke-linecap: round; stroke-dashoffset: 0; stroke-linejoin: round; stroke-miterlimit: 1.5; fill: rgb(235,235,235); fill-opacity: 0; fill-rule: evenodd; opacity: 1;"  transform=" translate(-918.73, -630.64)" d="M 1147.36 495.299 C 1147.36 494.352 1146.78 493.583 1146.06 493.583 L 693.128 493.583 C 691.459 493.583 690.105 495.371 690.105 497.573 L 690.105 699.171 C 690.105 736.993 713.376 767.7 742.039 767.7 L 1095.42 767.7 C 1124.09 767.7 1147.36 736.993 1147.36 699.171 L 1147.36 495.299 Z" stroke-linecap="round" />
</g>
		<g transform="matrix(1.09 0 0 0.96 22.69 121.19)"  >
<path style="stroke: rgb(255,255,255); stroke-width: 21.41; stroke-dasharray: none; stroke-linecap: round; stroke-dashoffset: 0; stroke-linejoin: round; stroke-miterlimit: 1.5; fill: none; fill-rule: evenodd; opacity: 1;"  transform=" translate(-854.21, -445.97)" d="M 575.157 446.359 L 1133.27 445.575" stroke-linecap="round" />
</g>
		<g transform="matrix(1.46 0 0 1.46 129.6 -118.22)"  >
<path style="stroke: rgb(255,255,255); stroke-width: 15.11; stroke-dasharray: none; stroke-linecap: round; stroke-dashoffset: 0; stroke-linejoin: round; stroke-miterlimit: 1.5; fill: none; fill-rule: evenodd; opacity: 1;"  transform=" translate(-857.52, -379.18)" d="M 834.093 485.422 L 833.325 336.17 L 808.875 336.427 C 808.875 336.427 797.654 352.547 790.01 352.33 C 782.366 352.113 769.599 352.201 769.599 352.201 C 769.599 352.201 768.831 276.533 813.435 275.769 C 858.039 275.005 881.676 274.61 881.676 274.61 C 881.676 274.61 901.454 305.279 931.213 274.018 C 933.107 272.028 945.436 273.414 945.436 273.414 L 945.038 337.235 C 945.038 337.235 931.433 338.402 929.518 336.738 C 917.812 326.567 900.736 320.653 882.005 337.34 C 880.869 338.352 833.325 336.17 833.325 336.17" stroke-linecap="round" />
</g>
		<g transform="matrix(1.46 0 0 1.46 155.53 -70.9)"  >
<path style="stroke: rgb(255,255,255); stroke-width: 15.11; stroke-dasharray: none; stroke-linecap: round; stroke-dashoffset: 0; stroke-linejoin: round; stroke-miterlimit: 1.5; fill: none; fill-rule: evenodd; opacity: 1;"  transform=" translate(-875.31, -411.68)" d="M 875.016 485.117 L 875.606 338.238" stroke-linecap="round" />
</g>
		<g transform="matrix(1.46 0 0 -0.75 28.1 90.22)"  >
<path style="stroke: rgb(255,255,255); stroke-width: 18.97; stroke-dasharray: none; stroke-linecap: round; stroke-dashoffset: 0; stroke-linejoin: round; stroke-miterlimit: 1.5; fill: rgb(255,255,255); fill-rule: evenodd; opacity: 1;"  transform=" translate(-787.79, -607.46)" d="M 986.671 579.401 C 986.671 563.918 980.157 551.347 972.134 551.347 L 603.443 551.347 C 595.42 551.347 588.907 563.918 588.907 579.401 L 588.907 635.51 C 588.907 650.993 595.42 663.564 603.443 663.564 L 972.134 663.564 C 980.157 663.564 986.671 650.993 986.671 635.51 L 986.671 579.401 Z" stroke-linecap="round" />
</g>
</g>
</g>
<g transform="matrix(1.25 0 0 1.25 160.84 271.66)"  >
<g style=""   >
		<g transform="matrix(1 0 0 1 -48.49 -20.43)"  >
<path style="stroke: none; stroke-width: 1; stroke-dasharray: none; stroke-linecap: butt; stroke-dashoffset: 0; stroke-linejoin: miter; stroke-miterlimit: 4; fill: rgb(153,157,164); fill-rule: nonzero; opacity: 0.8;"  transform=" translate(-60.51, -23.07)" d="M 59.7652 20.526 C 59.7652 20.526 60.3397 20.3436 61.2619 20.1763 V 25.9692 H 59.7652 V 20.526 Z" stroke-linecap="round" />
</g>
		<g transform="matrix(1 0 0 1 -43.02 -20.59)"  >
<path style="stroke: none; stroke-width: 1; stroke-dasharray: none; stroke-linecap: butt; stroke-dashoffset: 0; stroke-linejoin: miter; stroke-miterlimit: 4; fill: rgb(153,157,164); fill-rule: nonzero; opacity: 0.8;"  transform=" translate(-65.98, -22.91)" d="M 68.4434 20.3739 V 25.9692 H 66.9467 V 20.0546 C 66.3117 19.9482 65.6767 19.8874 65.0114 19.8722 V 25.9692 H 63.5147 V 19.9026 C 65.0114 19.7962 66.7804 19.857 68.4434 20.3739 Z" stroke-linecap="round" />
</g>
		<g transform="matrix(1 0 0 1 -50.3 5.33)"  >
<linearGradient id="SVGID_paint0_linear_4_6_6" gradientUnits="userSpaceOnUse" gradientTransform="matrix(1 0 0 1 0 0)"  x1="58.7038" y1="52.265" x2="58.7038" y2="46.5585">
<stop offset="0%" style="stop-color:rgb(29,29,27);stop-opacity: 1"/>
<stop offset="100%" style="stop-color:rgb(220,223,228);stop-opacity: 0.25"/>
</linearGradient>
<path style="stroke: none; stroke-width: 1; stroke-dasharray: none; stroke-linecap: butt; stroke-dashoffset: 0; stroke-linejoin: miter; stroke-miterlimit: 4; fill: url(#SVGID_paint0_linear_4_6_6); fill-rule: nonzero; opacity: 0.4;"  transform=" translate(-58.7, -48.83)" d="M 59.4477 45.9783 V 51.6952 C 59.2965 51.6495 59.1453 51.6191 58.9941 51.5735 C 58.9336 51.5583 58.8883 51.5431 58.8429 51.5279 C 58.6615 51.4671 58.4801 51.3911 58.2986 51.3151 C 58.2835 51.3151 58.2684 51.2998 58.2533 51.2998 C 58.1474 51.2542 58.0567 51.2086 57.9509 51.1478 V 45.9631 H 59.4477 V 45.9783 Z" stroke-linecap="round" />
</g>
		<g transform="matrix(1 0 0 1 -56.14 -9.88)"  >
<linearGradient id="SVGID_paint1_linear_4_6_7" gradientUnits="userSpaceOnUse" gradientTransform="matrix(1 0 0 1 0 0)"  x1="51.052" y1="31.7964" x2="53.5353" y2="34.2658">
<stop offset="0%" style="stop-color:rgb(255,255,255);stop-opacity: 1"/>
<stop offset="60.5%" style="stop-color:rgb(231,232,236);stop-opacity: 0.395"/>
<stop offset="100%" style="stop-color:rgb(220,223,228);stop-opacity: 0"/>
</linearGradient>
<path style="stroke: none; stroke-width: 1; stroke-dasharray: none; stroke-linecap: butt; stroke-dashoffset: 0; stroke-linejoin: miter; stroke-miterlimit: 4; fill: url(#SVGID_paint1_linear_4_6_7); fill-rule: nonzero; opacity: 1;"  transform=" translate(-52.86, -33.62)" d="M 52.8558 35.472 C 53.8745 35.472 54.7003 34.6416 54.7003 33.6171 C 54.7003 32.5926 53.8745 31.7621 52.8558 31.7621 C 51.8371 31.7621 51.0113 32.5926 51.0113 33.6171 C 51.0113 34.6416 51.8371 35.472 52.8558 35.472 Z" stroke-linecap="round" />
</g>
		<g transform="matrix(1 0 0 1 -39.53 -2.28)"  >
<linearGradient id="SVGID_paint2_linear_4_6_8" gradientUnits="userSpaceOnUse" gradientTransform="matrix(1 0 0 1 0 0)"  x1="67.6645" y1="39.3971" x2="70.148" y2="41.8664">
<stop offset="0%" style="stop-color:rgb(255,255,255);stop-opacity: 1"/>
<stop offset="22.900000000000002%" style="stop-color:rgb(243,244,246);stop-opacity: 0.771"/>
<stop offset="67%" style="stop-color:rgb(226,228,232);stop-opacity: 0.33"/>
<stop offset="100%" style="stop-color:rgb(220,223,228);stop-opacity: 0"/>
</linearGradient>
<path style="stroke: none; stroke-width: 1; stroke-dasharray: none; stroke-linecap: butt; stroke-dashoffset: 0; stroke-linejoin: miter; stroke-miterlimit: 4; fill: url(#SVGID_paint2_linear_4_6_8); fill-rule: nonzero; opacity: 1;"  transform=" translate(-69.47, -41.22)" d="M 69.4715 43.0743 C 70.4902 43.0743 71.3161 42.2438 71.3161 41.2193 C 71.3161 40.1949 70.4902 39.3644 69.4715 39.3644 C 68.4528 39.3644 67.627 40.1949 67.627 41.2193 C 67.627 42.2438 68.4528 43.0743 69.4715 43.0743 Z" stroke-linecap="round" />
</g>
		<g transform="matrix(1 0 0 1 -44.76 3.25)"  >
<linearGradient id="SVGID_paint3_linear_4_6_9" gradientUnits="userSpaceOnUse" gradientTransform="matrix(1 0 0 1 0 0)"  x1="62.4285" y1="44.9289" x2="64.912" y2="47.3984">
<stop offset="0%" style="stop-color:rgb(255,255,255);stop-opacity: 1"/>
<stop offset="22.900000000000002%" style="stop-color:rgb(243,244,246);stop-opacity: 0.771"/>
<stop offset="67%" style="stop-color:rgb(226,228,232);stop-opacity: 0.33"/>
<stop offset="100%" style="stop-color:rgb(220,223,228);stop-opacity: 0"/>
</linearGradient>
<path style="stroke: none; stroke-width: 1; stroke-dasharray: none; stroke-linecap: butt; stroke-dashoffset: 0; stroke-linejoin: miter; stroke-miterlimit: 4; fill: url(#SVGID_paint3_linear_4_6_9); fill-rule: nonzero; opacity: 1;"  transform=" translate(-64.24, -46.75)" d="M 64.2404 48.6087 C 65.2591 48.6087 66.0849 47.7782 66.0849 46.7538 C 66.0849 45.7293 65.2591 44.8988 64.2404 44.8988 C 63.2217 44.8988 62.3959 45.7293 62.3959 46.7538 C 62.3959 47.7782 63.2217 48.6087 64.2404 48.6087 Z" stroke-linecap="round" />
</g>
		<g transform="matrix(1 0 0 1 -53.68 -3.15)"  >
<linearGradient id="SVGID_paint4_linear_4_6_10" gradientUnits="userSpaceOnUse" gradientTransform="matrix(1 0 0 1 0 0)"  x1="53.5155" y1="38.539" x2="55.9989" y2="41.0085">
<stop offset="0%" style="stop-color:rgb(255,255,255);stop-opacity: 1"/>
<stop offset="22.900000000000002%" style="stop-color:rgb(243,244,246);stop-opacity: 0.771"/>
<stop offset="67%" style="stop-color:rgb(226,228,232);stop-opacity: 0.33"/>
<stop offset="100%" style="stop-color:rgb(220,223,228);stop-opacity: 0"/>
</linearGradient>
<path style="stroke: none; stroke-width: 1; stroke-dasharray: none; stroke-linecap: butt; stroke-dashoffset: 0; stroke-linejoin: miter; stroke-miterlimit: 4; fill: url(#SVGID_paint4_linear_4_6_10); fill-rule: nonzero; opacity: 1;"  transform=" translate(-55.32, -40.35)" d="M 55.3202 42.2076 C 56.3389 42.2076 57.1647 41.3771 57.1647 40.3526 C 57.1647 39.3282 56.3389 38.4977 55.3202 38.4977 C 54.3015 38.4977 53.4757 39.3282 53.4757 40.3526 C 53.4757 41.3771 54.3015 42.2076 55.3202 42.2076 Z" stroke-linecap="round" />
</g>
		<g transform="matrix(1 0 0 1 -44.61 -7.33)"  >
<path style="stroke: none; stroke-width: 1; stroke-dasharray: none; stroke-linecap: butt; stroke-dashoffset: 0; stroke-linejoin: miter; stroke-miterlimit: 4; fill: rgb(153,157,164); fill-rule: nonzero; opacity: 1;"  transform=" translate(-64.39, -36.17)" d="M 59.0999 51.604 C 59.0697 51.5887 59.0243 51.5887 58.9941 51.5735 C 58.9336 51.5583 58.8883 51.5431 58.8429 51.5279 C 59.0395 51.604 59.2511 51.68 59.4477 51.7256 V 51.6952 C 59.3267 51.6648 59.2209 51.6344 59.0999 51.604 Z M 59.4174 40.1246 C 59.3267 39.8053 59.0395 39.562 58.7068 39.562 H 57.0286 C 56.7414 38.9082 56.0913 38.4521 55.3353 38.4521 C 54.3072 38.4521 53.4757 39.2883 53.4757 40.307 C 53.4757 41.0064 53.8537 41.6146 54.4131 41.9339 C 54.6852 42.086 55.0027 42.1772 55.3353 42.1772 C 56.0913 42.1772 56.7414 41.721 57.0286 41.0673 H 57.966 V 45.9631 H 59.4628 V 40.307 C 59.4477 40.2614 59.4477 40.1854 59.4174 40.1246 Z M 75.247 30.6522 C 74.491 30.6522 73.8409 31.1083 73.5536 31.7621 H 68.4434 V 25.954 H 66.9467 V 32.5071 C 66.9467 32.9177 67.2793 33.2522 67.6875 33.2522 H 73.5536 C 73.8409 33.9059 74.491 34.3621 75.247 34.3621 C 76.2751 34.3621 77.0915 33.5258 77.0915 32.4919 C 77.0915 31.458 76.2751 30.6522 75.247 30.6522 Z M 65.9639 45.9783 C 65.7674 45.5526 65.4348 45.2181 65.0114 45.0356 V 25.9692 H 63.5147 V 45.0356 C 63.0913 45.2181 62.7587 45.5678 62.5622 45.9783 C 62.5471 45.9935 62.5471 46.0239 62.5319 46.0391 C 62.4412 46.252 62.3959 46.48 62.3959 46.7233 C 62.3959 47.7572 63.2274 48.5935 64.2404 48.5935 C 64.9207 48.5935 65.5255 48.2134 65.843 47.666 C 66.0093 47.3923 66.0849 47.073 66.0849 46.7233 C 66.1303 46.4648 66.0698 46.2064 65.9639 45.9783 Z M 59.7652 25.9692 V 32.872 H 54.5491 C 54.2619 32.2183 53.6118 31.7621 52.8558 31.7621 C 51.8277 31.7621 50.9962 32.5984 50.9962 33.6323 C 50.9962 34.6662 51.8277 35.4872 52.8558 35.4872 C 53.6118 35.4872 54.2619 35.0311 54.5491 34.3773 H 60.506 C 60.9142 34.3773 61.2468 34.0428 61.2468 33.6323 V 25.9844 H 59.7652 V 25.9692 Z M 59.0999 51.604 C 59.0697 51.5887 59.0243 51.5887 58.9941 51.5735 C 58.9336 51.5583 58.8883 51.5431 58.8429 51.5279 C 59.0395 51.604 59.2511 51.68 59.4477 51.7256 L 59.0999 51.604 Z M 75.247 30.6522 C 74.491 30.6522 73.8409 31.1083 73.5536 31.7621 H 68.4434 V 25.954 H 66.9467 V 32.5071 C 66.9467 32.9177 67.2793 33.2522 67.6875 33.2522 H 73.5536 C 73.8409 33.9059 74.491 34.3621 75.247 34.3621 C 76.2751 34.3621 77.0915 33.5258 77.0915 32.4919 C 77.0915 31.458 76.2751 30.6522 75.247 30.6522 Z M 65.9639 45.9783 C 65.7674 45.5526 65.4348 45.2181 65.0114 45.0356 V 25.9692 H 63.5147 V 45.0356 C 63.0913 45.2181 62.7587 45.5678 62.5622 45.9783 C 62.5471 45.9935 62.5471 46.0239 62.5319 46.0391 C 62.4412 46.252 62.3959 46.48 62.3959 46.7233 C 62.3959 47.7572 63.2274 48.5935 64.2404 48.5935 C 64.9207 48.5935 65.5255 48.2134 65.843 47.666 C 66.0093 47.3923 66.0849 47.073 66.0849 46.7233 C 66.1303 46.4648 66.0698 46.2064 65.9639 45.9783 Z M 59.7652 25.9692 V 32.872 H 54.5491 C 54.2619 32.2183 53.6118 31.7621 52.8558 31.7621 C 51.8277 31.7621 50.9962 32.5984 50.9962 33.6323 C 50.9962 34.6662 51.8277 35.4872 52.8558 35.4872 C 53.6118 35.4872 54.2619 35.0311 54.5491 34.3773 H 60.506 C 60.9142 34.3773 61.2468 34.0428 61.2468 33.6323 V 25.9844 H 59.7652 V 25.9692 Z M 58.5254 51.3911 L 59.0999 51.604 L 59.4477 51.7256 V 51.3911 H 58.5254 Z M 58.7068 39.5772 H 57.0286 C 56.7414 38.9234 56.0913 38.4673 55.3353 38.4673 C 54.3072 38.4673 53.4757 39.3035 53.4757 40.3222 C 53.4757 41.0216 53.8537 41.6298 54.4131 41.9491 V 40.1398 H 59.4174 C 59.3418 39.8053 59.0546 39.5772 58.7068 39.5772 Z M 64.3916 14.8395 C 52.6744 14.8395 43.1797 24.3879 43.1797 36.1714 C 43.1797 47.9549 52.6744 57.5033 64.3916 57.5033 C 76.1087 57.5033 85.6034 47.9549 85.6034 36.1714 C 85.6034 24.3879 76.0936 14.8395 64.3916 14.8395 Z M 58.5103 51.3911 C 58.4347 51.3607 58.3742 51.3455 58.2986 51.3151 L 58.5103 51.3911 L 59.0999 51.604 C 59.0697 51.5887 59.0243 51.5887 58.9941 51.5735 C 58.9336 51.5583 58.8883 51.5431 58.8429 51.5279 C 58.722 51.4823 58.6161 51.4367 58.5103 51.3911 Z M 69.4715 43.0742 C 70.4996 43.0742 71.316 42.238 71.316 41.2041 C 71.316 40.4439 70.8625 39.7901 70.2124 39.5012 V 38.5281 H 80.4479 C 79.314 46.4192 72.5407 52.501 64.3764 52.501 C 62.6529 52.501 61.0049 52.2273 59.4477 51.7256 V 40.3222 C 59.4477 40.2462 59.4326 40.1854 59.4174 40.1246 C 59.3267 39.8053 59.0395 39.562 58.7068 39.562 H 57.0286 C 56.7414 38.9082 56.0913 38.4521 55.3353 38.4521 C 54.3072 38.4521 53.4757 39.2883 53.4757 40.307 C 53.4757 41.0064 53.8537 41.6146 54.4131 41.9339 C 54.6852 42.086 55.0027 42.1772 55.3353 42.1772 C 56.0913 42.1772 56.7414 41.721 57.0286 41.0673 H 57.966 V 51.163 C 56.696 50.6005 55.5016 49.9011 54.4282 49.0496 C 50.6182 46.0543 48.1538 41.4018 48.1538 36.1714 C 48.1538 28.782 53.0524 22.533 59.7652 20.526 V 32.8568 H 54.5491 C 54.2619 32.203 53.6118 31.7469 52.8558 31.7469 C 51.8277 31.7469 50.9962 32.5832 50.9962 33.6171 C 50.9962 34.651 51.8277 35.472 52.8558 35.472 C 53.6118 35.472 54.2619 35.0159 54.5491 34.3621 H 60.506 C 60.9142 34.3621 61.2468 34.0276 61.2468 33.6171 V 20.1611 C 61.9877 20.0091 62.7436 19.9178 63.5147 19.8722 V 45.0204 C 63.0913 45.2029 62.7587 45.5526 62.5622 45.9631 C 62.5471 45.9783 62.5471 46.0087 62.5319 46.0239 C 62.4412 46.2368 62.3959 46.4648 62.3959 46.7081 C 62.3959 47.742 63.2274 48.5783 64.2404 48.5783 C 64.9207 48.5783 65.5255 48.1982 65.843 47.6508 C 66.0093 47.3771 66.0849 47.0578 66.0849 46.7081 C 66.0849 46.4344 66.0244 46.176 65.9186 45.9479 C 65.722 45.5222 65.3894 45.1877 64.9661 45.0052 V 19.8722 C 65.6162 19.9026 66.2663 19.9634 66.9013 20.0547 V 32.5223 C 66.9013 32.9329 67.2339 33.2674 67.6421 33.2674 H 73.5083 C 73.7956 33.9212 74.4457 34.3773 75.2016 34.3773 C 76.2297 34.3773 77.0461 33.541 77.0461 32.5071 C 77.0461 31.4732 76.2146 30.6522 75.2016 30.6522 C 74.4457 30.6522 73.7956 31.1083 73.5083 31.7621 H 68.3981 V 20.3588 C 75.3982 22.1681 80.584 28.5692 80.584 36.1714 C 80.584 36.4603 80.584 36.7492 80.5688 37.0229 H 69.4413 C 69.0331 37.0229 68.7005 37.3574 68.7005 37.7679 V 39.486 C 68.0504 39.7749 67.5968 40.4287 67.5968 41.1889 C 67.6119 42.238 68.4434 43.0742 69.4715 43.0742 Z M 58.7068 39.5772 H 57.0286 C 56.7414 38.9234 56.0913 38.4673 55.3353 38.4673 C 54.3072 38.4673 53.4757 39.3035 53.4757 40.3222 C 53.4757 41.0216 53.8537 41.6298 54.4131 41.9491 V 40.1398 H 59.4174 C 59.3418 39.8053 59.0546 39.5772 58.7068 39.5772 Z M 58.5254 51.3911 L 59.0999 51.604 L 59.4477 51.7256 V 51.3911 H 58.5254 Z M 59.7652 25.9692 V 32.872 H 54.5491 C 54.2619 32.2183 53.6118 31.7621 52.8558 31.7621 C 51.8277 31.7621 50.9962 32.5984 50.9962 33.6323 C 50.9962 34.6662 51.8277 35.4872 52.8558 35.4872 C 53.6118 35.4872 54.2619 35.0311 54.5491 34.3773 H 60.506 C 60.9142 34.3773 61.2468 34.0428 61.2468 33.6323 V 25.9844 H 59.7652 V 25.9692 Z M 65.9639 45.9783 C 65.7674 45.5526 65.4348 45.2181 65.0114 45.0356 V 25.9692 H 63.5147 V 45.0356 C 63.0913 45.2181 62.7587 45.5678 62.5622 45.9783 C 62.5471 45.9935 62.5471 46.0239 62.5319 46.0391 C 62.4412 46.252 62.3959 46.48 62.3959 46.7233 C 62.3959 47.7572 63.2274 48.5935 64.2404 48.5935 C 64.9207 48.5935 65.5255 48.2134 65.843 47.666 C 66.0093 47.3923 66.0849 47.073 66.0849 46.7233 C 66.1303 46.4648 66.0698 46.2064 65.9639 45.9783 Z M 75.247 30.6522 C 74.491 30.6522 73.8409 31.1083 73.5536 31.7621 H 68.4434 V 25.954 H 66.9467 V 32.5071 C 66.9467 32.9177 67.2793 33.2522 67.6875 33.2522 H 73.5536 C 73.8409 33.9059 74.491 34.3621 75.247 34.3621 C 76.2751 34.3621 77.0915 33.5258 77.0915 32.4919 C 77.0915 31.458 76.2751 30.6522 75.247 30.6522 Z M 59.7652 25.9692 V 32.872 H 54.5491 C 54.2619 32.2183 53.6118 31.7621 52.8558 31.7621 C 51.8277 31.7621 50.9962 32.5984 50.9962 33.6323 C 50.9962 34.6662 51.8277 35.4872 52.8558 35.4872 C 53.6118 35.4872 54.2619 35.0311 54.5491 34.3773 H 60.506 C 60.9142 34.3773 61.2468 34.0428 61.2468 33.6323 V 25.9844 H 59.7652 V 25.9692 Z M 65.9639 45.9783 C 65.7674 45.5526 65.4348 45.2181 65.0114 45.0356 V 25.9692 H 63.5147 V 45.0356 C 63.0913 45.2181 62.7587 45.5678 62.5622 45.9783 C 62.5471 45.9935 62.5471 46.0239 62.5319 46.0391 C 62.4412 46.252 62.3959 46.48 62.3959 46.7233 C 62.3959 47.7572 63.2274 48.5935 64.2404 48.5935 C 64.9207 48.5935 65.5255 48.2134 65.843 47.666 C 66.0093 47.3923 66.0849 47.073 66.0849 46.7233 C 66.1303 46.4648 66.0698 46.2064 65.9639 45.9783 Z M 75.247 30.6522 C 74.491 30.6522 73.8409 31.1083 73.5536 31.7621 H 68.4434 V 25.954 H 66.9467 V 32.5071 C 66.9467 32.9177 67.2793 33.2522 67.6875 33.2522 H 73.5536 C 73.8409 33.9059 74.491 34.3621 75.247 34.3621 C 76.2751 34.3621 77.0915 33.5258 77.0915 32.4919 C 77.0915 31.458 76.2751 30.6522 75.247 30.6522 Z M 59.4174 40.1246 C 59.3267 39.8053 59.0395 39.562 58.7068 39.562 H 57.0286 C 56.7414 38.9082 56.0913 38.4521 55.3353 38.4521 C 54.3072 38.4521 53.4757 39.2883 53.4757 40.307 C 53.4757 41.0064 53.8537 41.6146 54.4131 41.9339 C 54.6852 42.086 55.0027 42.1772 55.3353 42.1772 C 56.0913 42.1772 56.7414 41.721 57.0286 41.0673 H 57.966 V 45.9631 H 59.4628 V 40.307 C 59.4477 40.2614 59.4477 40.1854 59.4174 40.1246 Z M 59.0999 51.604 C 59.0697 51.5887 59.0243 51.5887 58.9941 51.5735 C 58.9336 51.5583 58.8883 51.5431 58.8429 51.5279 C 59.0395 51.604 59.2511 51.68 59.4477 51.7256 V 51.6952 C 59.3267 51.6648 59.2209 51.6344 59.0999 51.604 Z" stroke-linecap="round" />
</g>
		<g transform="matrix(1 0 0 1 -33.75 -10.96)"  >
<linearGradient id="SVGID_paint5_linear_4_6_11" gradientUnits="userSpaceOnUse" gradientTransform="matrix(1 0 0 1 0 0)"  x1="73.441" y1="30.7177" x2="75.9243" y2="33.1872">
<stop offset="0%" style="stop-color:rgb(255,255,255);stop-opacity: 1"/>
<stop offset="22.900000000000002%" style="stop-color:rgb(243,244,246);stop-opacity: 0.771"/>
<stop offset="67%" style="stop-color:rgb(226,228,232);stop-opacity: 0.33"/>
<stop offset="100%" style="stop-color:rgb(220,223,228);stop-opacity: 0"/>
</linearGradient>
<path style="stroke: none; stroke-width: 1; stroke-dasharray: none; stroke-linecap: butt; stroke-dashoffset: 0; stroke-linejoin: miter; stroke-miterlimit: 4; fill: url(#SVGID_paint5_linear_4_6_11); fill-rule: nonzero; opacity: 1;"  transform=" translate(-75.25, -32.54)" d="M 75.247 34.3925 C 76.2657 34.3925 77.0915 33.562 77.0915 32.5376 C 77.0915 31.5131 76.2657 30.6826 75.247 30.6826 C 74.2283 30.6826 73.4025 31.5131 73.4025 32.5376 C 73.4025 33.562 74.2283 34.3925 75.247 34.3925 Z" stroke-linecap="round" />
</g>
		<g transform="matrix(1 0 0 1 1.1 -7.33)"  >
<path style="stroke: none; stroke-width: 1; stroke-dasharray: none; stroke-linecap: butt; stroke-dashoffset: 0; stroke-linejoin: miter; stroke-miterlimit: 4; fill: rgb(153,157,164); fill-rule: nonzero; opacity: 1;"  transform=" translate(-110.1, -36.17)" d="M 30.6915 31.9293 V 29.5574 C 30.6915 27.2768 30.2681 25.7107 29.4063 24.8745 C 28.5446 24.0382 26.9117 23.6125 24.5078 23.6125 H 9.57029 C 7.13614 23.6125 5.5033 24.0382 4.65663 24.8745 C 3.79486 25.7107 3.37152 27.2768 3.37152 29.5574 V 42.8005 C 3.37152 45.0964 3.79486 46.6625 4.65663 47.4987 C 5.5033 48.335 7.15126 48.7455 9.57029 48.7455 H 24.4927 C 26.9117 48.7455 28.5446 48.335 29.3912 47.4987 C 30.253 46.6625 30.6763 45.0964 30.6763 42.8005 V 38.2696 L 24.8555 39.6076 V 44.0169 H 9.19232 V 28.113 H 24.8707 V 32.872 L 30.6915 31.9293 Z M 117.157 39.2579 H 120.422 C 122.418 39.2579 123.854 38.8626 124.746 38.0872 C 125.638 37.3117 126.077 36.065 126.077 34.3773 V 28.4779 C 126.077 26.7598 125.638 25.5283 124.746 24.7528 C 123.854 23.9774 122.418 23.5973 120.422 23.5973 H 99.0442 V 48.7303 H 104.759 V 39.2427 H 110.278 L 120.347 48.7303 H 128.692 L 117.157 39.2579 Z M 107.299 34.955 L 104.759 37.5094 V 27.961 H 117.837 C 118.85 27.961 119.545 28.113 119.908 28.4019 C 120.286 28.6908 120.468 29.2077 120.468 29.9376 V 32.948 C 120.468 33.6931 120.286 34.21 119.908 34.5141 C 119.545 34.803 118.85 34.955 117.837 34.955 H 107.299 Z M 152.248 44.0169 V 37.7831 H 163.783 V 33.5106 H 152.248 V 27.9002 H 171.993 L 167.73 23.6125 H 146.442 V 48.7455 H 172.265 V 44.0169 H 152.248 Z M 197.378 28.1282 V 28.0066 H 216.836 V 23.5973 H 191.557 V 48.7303 H 197.378 V 39.1971 H 207.901 V 34.6053 H 200.16 L 197.287 37.4942 V 27.9458 L 197.378 28.1282 Z" stroke-linecap="round" />
</g>
		<g transform="matrix(1 0 0 1 -45.58 -7.97)"  >
<path style="stroke: none; stroke-width: 1; stroke-dasharray: none; stroke-linecap: butt; stroke-dashoffset: 0; stroke-linejoin: miter; stroke-miterlimit: 4; fill: rgb(153,157,164); fill-rule: nonzero; opacity: 0.6;"  transform=" translate(-63.42, -35.53)" d="M 38.8406 59.9056 H 87.9922 C 92.0592 59.9056 95.3552 56.591 95.3552 52.501 V 18.5494 C 95.3552 14.4594 92.0592 11.1448 87.9922 11.1448 H 38.8406 C 34.7736 11.1448 31.4776 14.4594 31.4776 18.5494 V 52.501 C 31.4776 56.591 34.7736 59.9056 38.8406 59.9056 Z" stroke-linecap="round" />
</g>
</g>
</g>
</svg>