<svg width="1806" height="1700" viewBox="0 0 1806 1700" fill="none" xmlns="http://www.w3.org/2000/svg">
<g filter="url(#filter0_f_20_272)">
<path d="M624.665 1200.21C761 1319.5 642.87 1265.39 924.433 1083.39C928.296 1054.13 944.769 997.684 979.757 1005.97C1023.49 1016.32 920.44 1360.57 1178.27 1290.39C1328.5 1249.5 1292.83 1256.57 1362.31 1198.46C1431.78 1140.35 1402.31 1043.37 1372.95 874.769C1343.58 706.164 1322.38 827.997 1234.86 818.391C1147.34 808.786 1143.16 830.522 944.61 740.282C746.06 650.041 944.983 602.039 842.533 464.285C740.082 326.531 781.033 441.655 623.103 532.653C465.173 623.651 590.518 572.269 492.8 748.607C395.082 924.945 301.354 917.334 624.665 1200.21Z" fill="#4999D2" fill-opacity="0.5"/>
</g>
<defs>
<filter id="filter0_f_20_272" x="0.517578" y="0.564453" width="1804.5" height="1699.25" filterUnits="userSpaceOnUse" color-interpolation-filters="sRGB">
<feFlood flood-opacity="0" result="BackgroundImageFix"/>
<feBlend mode="normal" in="SourceGraphic" in2="BackgroundImageFix" result="shape"/>
<feGaussianBlur stdDeviation="200" result="effect1_foregroundBlur_20_272"/>
</filter>
</defs>
</svg>
