<svg width="31" height="31" viewBox="0 0 31 31" fill="none" xmlns="http://www.w3.org/2000/svg">
<path d="M29.5469 10.6562C30.3521 10.6562 31 10.0084 31 9.20312C31 8.39785 30.3521 7.75 29.5469 7.75L27.125 7.75C27.125 5.6127 25.3873 3.875 23.25 3.875V1.45312C23.25 0.647852 22.6021 0 21.7969 0C20.9916 0 20.3438 0.647852 20.3438 1.45312V3.875L16.9531 3.875V1.45312C16.9531 0.647852 16.3053 0 15.5 0C14.6947 0 14.0469 0.647852 14.0469 1.45312V3.875L10.6562 3.875V1.45312C10.6562 0.647852 10.0084 0 9.20312 0C8.39785 0 7.75 0.647852 7.75 1.45312V3.875C5.6127 3.875 3.875 5.6127 3.875 7.75H1.45312C0.647852 7.75 0 8.39785 0 9.20312C0 10.0084 0.647852 10.6562 1.45312 10.6562H3.875V14.0469H1.45312C0.647852 14.0469 0 14.6947 0 15.5C0 16.3053 0.647852 16.9531 1.45312 16.9531L3.875 16.9531V20.3437L1.45312 20.3437C0.647852 20.3437 0 20.9916 0 21.7969C0 22.6021 0.647852 23.25 1.45312 23.25L3.875 23.25C3.875 25.3873 5.6127 27.125 7.75 27.125L7.75 29.5469C7.75 30.3521 8.39785 31 9.20312 31C10.0084 31 10.6562 30.3521 10.6562 29.5469L10.6562 27.125H14.0469L14.0469 29.5469C14.0469 30.3521 14.6947 31 15.5 31C16.3053 31 16.9531 30.3521 16.9531 29.5469V27.125H20.3437V29.5469C20.3437 30.3521 20.9916 31 21.7969 31C22.6021 31 23.25 30.3521 23.25 29.5469V27.125C25.3873 27.125 27.125 25.3873 27.125 23.25H29.5469C30.3521 23.25 31 22.6021 31 21.7969C31 20.9916 30.3521 20.3438 29.5469 20.3438H27.125V16.9531H29.5469C30.3521 16.9531 31 16.3053 31 15.5C31 14.6947 30.3521 14.0469 29.5469 14.0469H27.125L27.125 10.6562H29.5469ZM23.25 9.6875L23.25 21.3125C23.25 22.3842 22.3842 23.25 21.3125 23.25H9.6875C8.61582 23.25 7.75 22.3842 7.75 21.3125V9.6875C7.75 8.61582 8.61582 7.75 9.6875 7.75L21.3125 7.75C22.3842 7.75 23.25 8.61582 23.25 9.6875ZM21.3125 21.3125L21.3125 9.6875L9.6875 9.6875V21.3125H21.3125Z" fill="white"/>
</svg>
