<svg width="21" height="23" viewBox="0 0 21 23" fill="none" xmlns="http://www.w3.org/2000/svg">
<path d="M10.2808 0.0202168C10.4261 -0.00673894 10.576 -0.00673894 10.7213 0.0202168L20.0954 1.81727C20.6204 1.91611 21 2.36087 21 2.87303C21 3.38519 20.6204 3.82996 20.0954 3.9288L16.5004 4.62067V7.18596C16.5004 10.3622 13.8148 12.9365 10.501 12.9365C7.18731 12.9365 4.50164 10.3622 4.50164 7.18596L4.50164 4.62067L2.25186 4.18937L2.25186 7.11407L2.98773 10.6363C3.02991 10.8474 2.97367 11.0676 2.83306 11.2338C2.69244 11.4 2.47684 11.4989 2.25186 11.4989H0.752012C0.527034 11.4989 0.316118 11.4045 0.17082 11.2338C0.0255216 11.0631 -0.0307228 10.8474 0.0161476 10.6363L0.752012 7.11407L0.752012 3.88837C0.306744 3.74011 0.00208645 3.33577 0.00208645 2.87303C0.00208645 2.36087 0.381736 1.91611 0.906684 1.81727L10.2808 0.0202168ZM5.24688 14.7201C5.73902 14.5673 6.26865 14.7381 6.62487 15.102L9.95266 18.4939C10.2479 18.7949 10.7495 18.7949 11.0447 18.4939L14.3725 15.102C14.7287 14.7381 15.2584 14.5673 15.7505 14.7201C18.7971 15.659 21 18.3906 21 21.6208C21 22.3845 20.3532 23 19.5611 23L1.44101 23C0.648897 23 0.00208645 22.38 0.00208645 21.6208C0.00208645 18.3906 2.20499 15.659 5.24688 14.7201Z" fill="white"/>
</svg>
