<svg width="28" height="21" viewBox="0 0 28 21" fill="none" xmlns="http://www.w3.org/2000/svg">
<path d="M0.455749 2.55792C-0.151916 1.97205 -0.151916 1.02528 0.455749 0.439404C1.06341 -0.146468 2.05026 -0.146468 2.65793 0.439404L11.9917 9.4384C12.5993 10.0243 12.5993 10.9757 11.9917 11.5616L2.65793 20.5606C2.05026 21.1465 1.06341 21.1465 0.455749 20.5606C-0.151916 19.9747 -0.151916 19.0233 0.455749 18.4374L8.68597 10.4977L0.455749 2.55792ZM12.4438 17.9968L26.4444 17.9968C27.3048 17.9968 28 18.6671 28 19.4967C28 20.3262 27.3048 20.9965 26.4444 20.9965L12.4438 20.9965C11.5833 20.9965 10.8881 20.3262 10.8881 19.4967C10.8881 18.6671 11.5833 17.9968 12.4438 17.9968Z" fill="white"/>
</svg>
